<svg xmlns="http://www.w3.org/2000/svg" width="20" height="20" viewBox="0 0 20 20">
  <path d="M15.5 6h-1.1a2 2 0 00.5-1.8A1.5 1.5 0 0013.2 3a3.7 3.7 0 00-1.5.3A4.4 4.4 0 0010 5.2a4.4 4.4 0 00-1.7-1.9A3.2 3.2 0 006.9 3c-1.2 0-1.7.6-1.8 1.2A2 2 0 005.6 6H4.5A1.5 1.5 0 003 7.5v2a1.5 1.5 0 001 1.4v3.6A1.5 1.5 0 005.5 16h9a1.5 1.5 0 001.5-1.5v-3.6a1.5 1.5 0 001-1.4v-2A1.5 1.5 0 0015.5 6zm-3.4-1.8l1.1-.2c.4 0 .7.1.7.4 0 .3-.1 1-.8 1.3a3.2 3.2 0 01-1.5.2h-.9a5.3 5.3 0 011.4-1.7zm-6 .2c0-.3.4-.4.8-.4l1 .2a5.3 5.3 0 011.4 1.7h-.9a3.2 3.2 0 01-1.5-.2c-.7-.3-.9-.7-.8-1.3zM4 7.5a.5.5 0 01.5-.5h5v3h-5a.5.5 0 01-.5-.5v-2zm1 7V11h4.5v4h-4a.5.5 0 01-.5-.5zm10 0a.5.5 0 01-.5.5h-4v-4H15v3.5zm1-5a.5.5 0 01-.5.5h-5V7h5a.5.5 0 01.5.5v2z"/>
</svg>
