<svg xmlns="http://www.w3.org/2000/svg" width="24" height="24" viewBox="0 0 24 24">
  <path fill-rule="evenodd" d="M4.9999,11.9999 C4.9999,15.8599 8.1399,18.9999 11.9999,18.9999 C14.7039,18.9999 17.1519,17.4089 18.3029,14.9999 L18.3029,14.9999 L15.9999,14.9999 L15.9999,13.9999 L19.9999,13.9999 L19.9999,17.9999 L18.9999,17.9999 L18.9999,15.8679 C17.6069,18.3789 14.9259,19.9999 11.9999,19.9999 C7.5889,19.9999 3.9999,16.4109 3.9999,11.9999 L3.9999,11.9999 Z M11.9999,3.9999 C16.4109,3.9999 19.9999,7.5889 19.9999,11.9999 L19.9999,11.9999 L18.9999,11.9999 C18.9999,8.1399 15.8599,4.9999 11.9999,4.9999 C9.3059,4.9999 6.8479,6.5939 5.6959,8.9999 L5.6959,8.9999 L7.9999,8.9999 L7.9999,9.9999 L3.9999,9.9999 L3.9999,5.9999 L4.9999,5.9999 L4.9999,8.1449 C6.3929,5.6319 9.0799,3.9999 11.9999,3.9999 Z"/>
</svg>
