<svg xmlns="http://www.w3.org/2000/svg" width="24" height="24" viewBox="0 0 24 24">
  <path fill-rule="evenodd" d="M4.5 12.1a2.7 2.7 0 01.8-1.9l2.9-2.9a8 8 0 001.9-3c0-.689.353-1.28 1.1-1.3a1.2 1.2 0 011.2 1.2 7.7 7.7 0 01-.8 3.4l-.2.4c-.07.042.379.038 1.727.025.076 0 .155 0 .236-.002A2.246 2.246 0 0013.835 11 2.246 2.246 0 0013 12.75c0 .707.326 1.338.836 1.75A2.246 2.246 0 0013 16.25c0 .707.326 1.337.836 1.75a2.246 2.246 0 00-.457 3H7.593a3.199 3.199 0 01-1.422-.356h-.002A3.1 3.1 0 014.5 17.9v-5.304c.001-.177.017-.353.047-.525L4.5 12.1zm13.104 8.85a1.25 1.25 0 00-.354-2.45h-2a1.25 1.25 0 100 2.5h2c.123 0 .241-.018.354-.05zm.646-3.45a1.25 1.25 0 100-2.5h-3a1.25 1.25 0 100 2.5h3zm0-3.5a1.25 1.25 0 00.008-2.5H15.25a1.25 1.25 0 100 2.5h3zm.077-3.502A1.25 1.25 0 0018.262 8H15.25a1.263 1.263 0 00-.16.01 1.25 1.25 0 00.16 2.49h3c.026 0 .052 0 .077-.002z"/>
</svg>
