<svg xmlns="http://www.w3.org/2000/svg" width="30" height="30" viewBox="0 0 30 30">
  <path d="M18.51 6l.11 1.14a1.68 1.68 0 00.908 1.326l.142.064a1.68 1.68 0 001.72-.25l.88-.72 2.14 2.14-.72.88a1.68 1.68 0 00-.304 1.575l.054.145a1.7 1.7 0 001.39 1.05l1.17.14v3l-1.14.11a1.7 1.7 0 00-1.325.909l-.065.141a1.68 1.68 0 00.25 1.72l.72.88-2.14 2.14-.88-.72a1.68 1.68 0 00-1.575-.304l-.145.054a1.68 1.68 0 00-1.05 1.39L18.51 24H15v-5.13a1 1 0 011.2-1 3 3 0 002.92-5.01 2.71 2.71 0 00-.83-.58 2.94 2.94 0 00-2.08-.2 1 1 0 01-1.21-1V6h3.51zM10.5 17a1.5 1.5 0 011.5 1.5v4a1.5 1.5 0 01-1.5 1.5h-4A1.5 1.5 0 015 22.5v-4A1.5 1.5 0 016.5 17h4zM12 7.5A1.5 1.5 0 0010.5 6h-4A1.5 1.5 0 005 7.5v4A1.5 1.5 0 006.5 13h4a1.5 1.5 0 001.5-1.5v-4z"/>
</svg>
