<svg xmlns="http://www.w3.org/2000/svg" width="30" height="30" viewBox="0 0 30 30">
  <path d="M19.673 17.27c-.192.154-.433.23-.673.23-.271 0-.543-.097-.74-.29l-2.678-2.613-2.862 2.632a1.09 1.09 0 01-1.414.022.818.818 0 01-.026-1.254L15.625 12l4.114 4.016c.372.363.342.924-.066 1.254zM27 10a6 6 0 00-6-6H10a6 6 0 00-6 6v11a6 6 0 006 6h11a6 6 0 006-6V10z"/>
  <path d="M19.673 17.27c-.192.154-.433.23-.673.23-.271 0-.543-.097-.74-.29l-2.678-2.613-2.862 2.632a1.09 1.09 0 01-1.414.022.818.818 0 01-.026-1.254L15.625 12l4.114 4.016c.372.363.342.924-.066 1.254zM27 10a6 6 0 00-6-6H10a6 6 0 00-6 6v11a6 6 0 006 6h11a6 6 0 006-6V10z"/>
</svg>
