<svg xmlns="http://www.w3.org/2000/svg" width="26" height="26" viewBox="0 0 26 26">
  <path d="M6 12.41l-2.21-2.2a1.004 1.004 0 011.42-1.42l.79.8 2.29-2.3a1.004 1.004 0 111.42 1.42L6 12.41zm0 7l-2.21-2.2a1.004 1.004 0 111.42-1.42l.79.8 2.29-2.3a1.004 1.004 0 111.42 1.42L6 19.41zM21.09 15h-8.18a.91.91 0 00-.91.91v1.18c0 .503.407.91.91.91h8.18a.91.91 0 00.91-.91v-1.18a.91.91 0 00-.91-.91zm0-7h-8.18a.91.91 0 00-.91.91v1.18c0 .503.407.91.91.91h8.18a.91.91 0 00.91-.91V8.91a.91.91 0 00-.91-.91z"/>
</svg>
