<svg xmlns="http://www.w3.org/2000/svg" width="30" height="30" viewBox="0 0 30 30">
  <path d="M24.35 23.296a1 1 0 000-1.414l-1.625-1.626C24.972 17.945 26 15.206 26 14.648c0-1-3.3-9-11-9-2.118 0-3.904.605-5.38 1.504l-1.858-1.86a1 1 0 00-1.415 0L5.64 6a1 1 0 000 1.414l1.63 1.63C5.028 11.355 4 14.09 4 14.649c0 1 3.3 9 11 9 2.116 0 3.9-.604 5.373-1.5l1.856 1.855a1 1 0 001.414 0l.707-.707zm-4.183-5.597l-1.485-1.486a4 4 0 00-5.247-5.248L11.948 9.48a6 6 0 018.219 8.218zm-3.608.634l1.486 1.486a6 6 0 01-8.216-8.216l1.486 1.486a4 4 0 005.244 5.244z"/>
</svg>
