<svg xmlns="http://www.w3.org/2000/svg" width="30" height="30" viewBox="0 0 30 30">
  <path d="M24.226 8.82a1.025 1.025 0 00-1.375-.409.987.987 0 00-.417 1.35 11.825 11.825 0 011.435 5.63c0 1.96-.497 3.908-1.435 5.631a.99.99 0 00.417 1.351c.152.08.316.117.478.117.363 0 .714-.19.897-.527a13.77 13.77 0 001.676-6.572 13.77 13.77 0 00-1.676-6.57zM11.672 5.416c5.613 0 10.164 4.466 10.164 9.976 0 5.509-4.55 9.975-10.164 9.975a10.24 10.24 0 01-4.763-1.171l-.302-.164L1 25.866l1.868-5.503a9.782 9.782 0 01-1.36-4.971c0-5.51 4.551-9.976 10.164-9.976zm13.819-.247a1.025 1.025 0 011.409.276 17.632 17.632 0 013.067 9.946c0 3.554-1.06 6.993-3.067 9.947a1.018 1.018 0 01-.847.444c-.193 0-.39-.054-.562-.168a.986.986 0 01-.282-1.383 15.667 15.667 0 002.725-8.84 15.67 15.67 0 00-2.725-8.84.985.985 0 01.282-1.382z"/>
</svg>
