<svg xmlns="http://www.w3.org/2000/svg" width="18" height="18" viewBox="0 0 18 18">
  <path d="M14,3 C14.5522847,3 15,3.44771525 15,4 L15,14 C15,14.5522847 14.5522847,15 14,15 L4,15 C3.44771525,15 3,14.5522847 3,14 L3,4 C3,3.44771525 3.44771525,3 4,3 L14,3 Z M14,4 L4,4 L4,14 L14,14 L14,4 Z M9.41892801,5.22605965 L9.46153846,5.30769231 L11.9615385,11.3076923 C12.0677471,11.562593 11.9472083,11.8553299 11.6923077,11.9615385 C11.4657293,12.0559461 11.2092557,11.9711954 11.0804651,11.7721715 L11.0384615,11.6923077 L10.333,10 L7.666,10 L6.96153846,11.6923077 C6.86713081,11.9188861 6.62534279,12.0393019 6.39375276,11.98867 L6.30769231,11.9615385 C6.08111395,11.8671308 5.9606981,11.6253428 6.01132999,11.3937528 L6.03846154,11.3076923 L8.53846154,5.30769231 C8.6971917,4.92673993 9.20966335,4.89952904 9.41892801,5.22605965 Z M9,6.8 L8.083,9 L9.917,9 L9,6.8 Z"/>
</svg>
