<svg width="18" height="18" fill="none" xmlns="http://www.w3.org/2000/svg">
  <path d="M6.326 4A2.326 2.326 0 004 6.326v.22c0 .626-.155 1.242-.452 1.793A1.26 1.26 0 012.44 9H2v1h.44c.463 0 .888.254 1.108.661.297.55.452 1.167.452 1.792v.221A2.326 2.326 0 006.326 15h.245A.429.429 0 007 14.571V14.4a.4.4 0 00-.4-.4h-.136A1.463 1.463 0 015 12.537a4.39 4.39 0 00-.464-1.964L4 9.5l.536-1.073A4.39 4.39 0 005 6.464C5 5.655 5.655 5 6.464 5H6.6a.4.4 0 00.4-.4v-.171A.429.429 0 006.571 4h-.245zm4.348 0A2.326 2.326 0 0113 6.326v.22c0 .626.155 1.242.453 1.793.22.407.644.661 1.107.661H15v1h-.44c-.463 0-.888.254-1.107.661A3.775 3.775 0 0013 12.453v.221A2.326 2.326 0 0110.674 15h-.245a.429.429 0 01-.429-.429V14.4c0-.22.18-.4.4-.4h.136c.809 0 1.464-.655 1.464-1.463 0-.682.159-1.354.463-1.964L13 9.5l-.537-1.073A4.39 4.39 0 0112 6.464C12 5.655 11.345 5 10.537 5H10.4a.4.4 0 01-.4-.4v-.171c0-.237.192-.429.429-.429h.245z" fill="#000"/>
</svg>
