<svg width="24" height="24" fill="none" xmlns="http://www.w3.org/2000/svg">
  <path d="M9.571 5A2.571 2.571 0 007 7.571v.976c0 .625-.155 1.241-.452 1.792A1.26 1.26 0 015.44 11H5v1h.44c.463 0 .888.254 1.108.661.297.55.452 1.167.452 1.792v1.976A2.571 2.571 0 009.571 19a.429.429 0 00.429-.429V18.4a.4.4 0 00-.4-.4A1.6 1.6 0 018 16.4v-1.484a6 6 0 00-.633-2.683L7 11.5l.367-.733A6 6 0 008 8.084V7.6A1.6 1.6 0 019.6 6a.4.4 0 00.4-.4v-.171A.429.429 0 009.571 5zm4.858 0A2.571 2.571 0 0117 7.571v.976c0 .625.155 1.241.453 1.792.22.407.644.661 1.107.661H19v1h-.44c-.463 0-.888.254-1.107.661A3.775 3.775 0 0017 14.453v1.976A2.571 2.571 0 0114.429 19a.429.429 0 01-.429-.429V18.4c0-.22.18-.4.4-.4a1.6 1.6 0 001.6-1.6v-1.484c0-.931.217-1.85.633-2.683L17 11.5l-.367-.733A6.001 6.001 0 0116 8.084V7.6A1.6 1.6 0 0014.4 6a.4.4 0 01-.4-.4v-.171c0-.237.192-.429.429-.429z" fill="#000"/>
</svg>
