<svg xmlns="http://www.w3.org/2000/svg" width="18" height="18" viewBox="0 0 18 18">
  <path d="M6.82613993,9.6556756 L7.53164127,10.3631975 C7.17154407,10.703071 7,11.0821604 7,11.5 C7,12.3253914 7.60087057,12.9258246 8.35659572,12.9936078 L8.5,13 L12.0856015,12.999297 C12.2917181,12.4170681 12.8471533,12 13.5,12 C14.3284271,12 15,12.6715729 15,13.5 C15,14.3284271 14.3284271,15 13.5,15 C12.8467813,15 12.2910851,14.5824565 12.0852495,13.9997075 L8.5,14 C7.1441358,14 6,12.9491472 6,11.5 C6,10.7866039 6.28177807,10.1721375 6.82613993,9.6556756 Z M13.5,13 C13.2238576,13 13,13.2238576 13,13.5 C13,13.7761424 13.2238576,14 13.5,14 C13.7761424,14 14,13.7761424 14,13.5 C14,13.2238576 13.7761424,13 13.5,13 Z M7.79465517,7.08686649 L7.86390306,7.14472194 L10.8614981,10.1477971 C11.0567603,10.3430592 11.0567603,10.6596417 10.8614981,10.8549039 C10.6879318,11.0284702 10.4185074,11.0477554 10.2236392,10.9127593 L10.1543914,10.8549039 L7.15679628,7.85182872 C6.96153413,7.65656658 6.96153413,7.33998409 7.15679628,7.14472194 C7.33036263,6.97115559 7.59978703,6.95187044 7.79465517,7.08686649 Z M4.5,3 C5.1528467,3 5.70828193,3.41706808 5.91439849,3.99929704 L9.47436306,4 C10.8809065,4 11.9743631,4.95559887 11.9743631,6.5 C11.9743631,7.22094927 11.7018317,7.83783123 11.1775645,8.34910993 L10.4711813,7.64121493 C10.8120751,7.30698954 10.9743631,6.92690978 10.9743631,6.5 C10.9743631,5.59656519 10.4269154,5.06499383 9.6271949,5.00558209 L9.47436306,5 L5.91475048,4.99970754 C5.70891488,5.58245649 5.15321869,6 4.5,6 C3.67157288,6 3,5.32842712 3,4.5 C3,3.67157288 3.67157288,3 4.5,3 Z M4.5,4 C4.22385763,4 4,4.22385763 4,4.5 C4,4.77614237 4.22385763,5 4.5,5 C4.77614237,5 5,4.77614237 5,4.5 C5,4.22385763 4.77614237,4 4.5,4 Z"/>
</svg>
