<svg xmlns="http://www.w3.org/2000/svg" width="18" height="18" viewBox="0 0 18 18">
  <path fill="#020202" d="M13,9 C14.6568542,9 16,10.3431458 16,12 C16,12.6478836 15.7946246,13.2477991 15.4454251,13.7381953 L16.8535534,15.1464466 C17.0488155,15.3417088 17.0488155,15.6582912 16.8535534,15.8535534 C16.679987,16.0271197 16.4105626,16.0464049 16.2156945,15.9114088 L16.1464466,15.8535534 L14.7381953,14.4454251 C14.2477991,14.7946246 13.6478836,15 13,15 C11.3431458,15 10,13.6568542 10,12 C10,10.3431458 11.3431458,9 13,9 Z M13.5,4 C13.7761424,4 14,4.22385763 14,4.5 C14,4.60848656 13.9654492,4.70890335 13.9067512,4.79084693 L12.1009252,7.5 L12.458465,8.03634709 C12.1031276,8.08443941 11.7626057,8.17919213 11.443271,8.31423347 L10.8990748,7.5 L12.5657415,5 L6,5 L6,10 L9.53577067,9.99889078 C9.35637963,10.3087751 9.21737479,10.6449588 9.12595483,11.0002435 L6,11 L6,15 L5,15 L5,4 L13.5,4 Z M13,10 C11.8954305,10 11,10.8954305 11,12 C11,13.1045695 11.8954305,14 13,14 C14.1045695,14 15,13.1045695 15,12 C15,10.8954305 14.1045695,10 13,10 Z"/>
</svg>
