<svg xmlns="http://www.w3.org/2000/svg" width="24" height="24" viewBox="0 0 24 24">
  <path fill="#020202" d="M17.5,5 C17.5776225,5 17.6541791,5.01807255 17.7236068,5.0527864 C17.970596,5.17628103 18.0707082,5.47661755 17.9472136,5.7236068 L16.059017,9.5 L17.309,12 L16.19,12 L14.940983,9.5 L16.690983,6 L7,6 L7,13 L11,12.999 L11,14 L7,14 L7,20 L6,20 L6,5 L17.5,5 Z M13.7843055,13.0885912 L13.8535534,13.1464466 L16.5,15.793 L19.1464466,13.1464466 C19.3417088,12.9511845 19.6582912,12.9511845 19.8535534,13.1464466 C20.0271197,13.320013 20.0464049,13.5894374 19.9114088,13.7843055 L19.8535534,13.8535534 L17.207,16.5 L19.8535534,19.1464466 C20.0488155,19.3417088 20.0488155,19.6582912 19.8535534,19.8535534 C19.679987,20.0271197 19.4105626,20.0464049 19.2156945,19.9114088 L19.1464466,19.8535534 L16.5,17.207 L13.8535534,19.8535534 C13.6582912,20.0488155 13.3417088,20.0488155 13.1464466,19.8535534 C12.9728803,19.679987 12.9535951,19.4105626 13.0885912,19.2156945 L13.1464466,19.1464466 L15.793,16.5 L13.1464466,13.8535534 C12.9511845,13.6582912 12.9511845,13.3417088 13.1464466,13.1464466 C13.320013,12.9728803 13.5894374,12.9535951 13.7843055,13.0885912 Z"/>
</svg>
