<svg width="24" height="24" fill="none" xmlns="http://www.w3.org/2000/svg">
  <path d="M18 19a1 1 0 01-1 1H7a1 1 0 01-1-1v-1H4a1 1 0 01-1-1v-1a5.002 5.002 0 013.143-4.644A3 3 0 018.51 6.043 3.999 3.999 0 0112 4c1.498 0 2.804.824 3.49 2.043a3 3 0 012.368 5.313A5.002 5.002 0 0121 16v1a1 1 0 01-1 1h-2v1zm0-2h2v-1a4.002 4.002 0 00-3-3.874v-1.394a2 2 0 00-1.125-3.728 4.009 4.009 0 01-1.748 4.384A6.002 6.002 0 0118 17zM7 17v2h10v-2a5.003 5.003 0 00-4-4.9v-1.271a3 3 0 10-2 0V12.1A5.003 5.003 0 007 17zm2.873-5.612a3.997 3.997 0 01-1.748-4.384A2 2 0 007 10.733v1.393c-1.725.444-3 2.01-3 3.874v1h2a6.002 6.002 0 013.873-5.612z" fill="#000"/>
</svg>
