<svg width="18" height="18" fill="none" xmlns="http://www.w3.org/2000/svg">
  <path d="M3 13h1v1a1 1 0 001 1h8a1 1 0 001-1v-1h1a1 1 0 001-1v-1a4.001 4.001 0 00-2.48-3.7 2 2 0 00-2.188-3.185A2.994 2.994 0 009 3c-.942 0-1.783.434-2.333 1.114a2 2 0 00-2.188 3.185A4.001 4.001 0 002 11v1a1 1 0 001 1zm8.834-7.986a1 1 0 01.666 1.853V8.04A3 3 0 0115 11v1h-1.1a5.009 5.009 0 00-3.043-3.644 2.995 2.995 0 00.977-3.342zM13 13v1H5v-1a4.002 4.002 0 013-3.874V7.732a2 2 0 112 0v1.394c1.725.444 3 2.01 3 3.874zM6 5c.057 0 .112.005.166.014a2.995 2.995 0 00.977 3.343A5.009 5.009 0 004.1 12H3v-1a3 3 0 012.5-2.959V6.866A1 1 0 016 5z" fill="#000"/>
</svg>
