<svg width="18" height="18" fill="none" xmlns="http://www.w3.org/2000/svg">
  <path d="M10 8.5a.5.5 0 01-.5.5h-3a.5.5 0 010-1h3a.5.5 0 01.5.5z" fill="#000"/>
  <path d="M4 8.5A2.5 2.5 0 016.5 6a.5.5 0 010 1 1.5 1.5 0 100 3 .5.5 0 010 1A2.5 2.5 0 014 8.5zM9.5 6a2.5 2.5 0 010 5 .5.5 0 010-1 1.5 1.5 0 000-3 .5.5 0 010-1z" fill="#000"/>
  <path d="M2 5a1 1 0 011-1h10a1 1 0 011 1v1h1a1 1 0 011 1v7a1 1 0 01-1 1H5a1 1 0 01-1-1v-1H3a1 1 0 01-1-1V5zm3 8v1h10V7h-1v5a1 1 0 01-1 1H5zM3 5v7h10V5H3z" fill="#000"/>
</svg>
