<svg width="24" height="24" fill="none" xmlns="http://www.w3.org/2000/svg">
  <path d="M8.5 8a2.5 2.5 0 000 5h1a.5.5 0 000-1h-1a1.5 1.5 0 010-3h1a.5.5 0 000-1h-1zm6.5 2.5A2.5 2.5 0 0012.5 8h-1a.5.5 0 000 1h1a1.5 1.5 0 010 3h-1a.5.5 0 000 1h1a2.5 2.5 0 002.5-2.5z" fill="#000"/>
  <path d="M11.5 11a.5.5 0 000-1h-2a.5.5 0 000 1h2z" fill="#000"/>
  <path d="M3 6a1 1 0 011-1h13a1 1 0 011 1v1h2a1 1 0 011 1v10a1 1 0 01-1 1H6a1 1 0 01-1-1v-2H4a1 1 0 01-1-1V6zm15 9a1 1 0 01-1 1H6v2h14V8h-2v7zM4 6l.071 9H16.93l-.072-9H4z" fill="#000"/>
</svg>
