<svg xmlns="http://www.w3.org/2000/svg" width="18" height="18" viewBox="0 0 18 18">
  <path d="M14,5.5 C14,5.22385763 13.7761424,5 13.5,5 C13.2545401,5 13.0503916,5.17687516 13.0080557,5.41012437 L13,5.5 L13,9 L12,9 L12,4.5 C12,4.22385763 11.7761424,4 11.5,4 C11.2545401,4 11.0503916,4.17687516 11.0080557,4.41012437 L11,4.5 L11,9 L10,9 L10,3.5 C10,3.22385763 9.77614237,3 9.5,3 C9.25454011,3 9.05039163,3.17687516 9.00805567,3.41012437 L9,3.5 L9,9 L8,9 L8,4.5 C8,4.22385763 7.77614237,4 7.5,4 C7.25454011,4 7.05039163,4.17687516 7.00805567,4.41012437 L7,4.5 L7,10.3792893 C7,10.5251584 6.94205374,10.665053 6.83890873,10.7681981 C6.64798574,10.959121 6.3516189,10.9803347 6.13726395,10.831839 L6.06109127,10.7681981 L4.89644661,9.60355339 C4.67749519,9.38460197 4.32250481,9.38460197 4.10355339,9.60355339 C3.90892991,9.79817687 3.88730508,10.1002879 4.0386789,10.3187975 L4.10355339,10.3964466 L6.68198052,12.9748737 C7.28786728,13.5807605 8.09302053,13.9415675 8.94340497,13.9934911 L9.15685425,14 L11.5,14 C12.8254834,14 13.9100387,12.9684641 13.9946823,11.6643757 L14,11.5 L14,5.5 Z M15,11.5 C15,13.3685634 13.5357224,14.8951264 11.6920352,14.9948211 L11.5,15 L9.15685425,15 C8.04294499,15 6.97161704,14.5870012 6.14759092,13.8458016 L5.97487373,13.6819805 L3.39644661,11.1035534 C2.7869709,10.4940777 2.7869709,9.50592232 3.39644661,8.89644661 C3.96783009,8.32506313 4.87203748,8.28935167 5.48502395,8.78931221 L5.60355339,8.89644661 L6,9.293 L6,4.5 C6,3.67157288 6.67157288,3 7.5,3 C7.69531388,3 7.88190901,3.03732938 8.05304003,3.10524275 C8.22620315,2.46798519 8.80844968,2 9.5,2 C10.1915503,2 10.7737969,2.46798519 10.9473213,3.10453727 C11.118091,3.03732938 11.3046861,3 11.5,3 C12.1915503,3 12.7737969,3.46798519 12.9473213,4.10453727 C13.118091,4.03732938 13.3046861,4 13.5,4 C14.3284271,4 15,4.67157288 15,5.5 L15,11.5 Z"/>
</svg>
