<svg xmlns="http://www.w3.org/2000/svg" width="24" height="24" viewBox="0 0 24 24">
  <path d="M7,6 C7,4.8954305 7.8954305,4 9,4 C9.41196636,4 9.7948408,4.12455733 10.113018,4.33806669 C10.3848611,3.55917167 11.1271298,3 12,3 C12.8730265,3 13.6154047,3.55937192 13.8882813,4.33926241 C14.204666,4.12471782 14.5877683,4 15,4 C16.0543618,4 16.9181651,4.81587779 16.9945143,5.85073766 L17,6 L16.9989225,6.26818814 C17.2933392,6.0976323 17.635268,6 18,6 C19.0543618,6 19.9181651,6.81587779 19.9945143,7.85073766 L20,8 L20,15.5 C20,17.9142733 18.0987635,19.8844891 15.7118357,19.995102 L15.5,20 L10.1568542,20 C9.04294499,20 7.97161704,19.5870012 7.14759092,18.8458016 L6.97487373,18.6819805 L3.39644661,15.1035534 C2.51082853,14.2179353 2.51082853,12.7820647 3.39644661,11.8964466 C4.2398924,11.0530008 5.58243346,11.0128367 6.47341214,11.7759544 L6.60355339,11.8964466 L7,12.293 L7,6 Z M11,11.5 C11,11.7454599 10.8231248,11.9496084 10.5898756,11.9919443 L10.5,12 C10.2545401,12 10.0503916,11.8231248 10.0080557,11.5898756 L10,11.5 L10,6 C10,5.44771525 9.55228475,5 9,5 C8.48716416,5 8.06449284,5.38604019 8.00672773,5.88337887 L8,6 L8,13.4975858 C7.97360811,13.6941749 7.97360811,13.6941749 7.8532605,13.8518463 C7.53836228,14.0257598 7.50337359,14.0450835 7.25067748,13.9098174 L7.1447395,13.8518463 L5.89644661,12.6035534 C5.40135282,12.1084596 4.59864718,12.1084596 4.10355339,12.6035534 C3.64146585,13.0656409 3.61066002,13.7956926 4.01113588,14.2935086 L4.10355339,14.3964466 L7.68198052,17.9748737 C8.28786728,18.5807605 9.09302053,18.9415675 9.94340497,18.9934911 L10.1568542,19 L15.5,19 C17.3685634,19 18.8951264,17.5357224 18.9948211,15.6920352 L19,15.5 L19,8 C19,7.44771525 18.5522847,7 18,7 C17.4871642,7 17.0644928,7.38604019 17.0067277,7.88337887 L17,8 L17,11.5 C17,11.7454599 16.8231248,11.9496084 16.5898756,11.9919443 L16.5,12 C16.2545401,12 16.0503916,11.8231248 16.0080557,11.5898756 L16,11.5 L16,6 C16,5.44771525 15.5522847,5 15,5 C14.4871642,5 14.0644928,5.38604019 14.0067277,5.88337887 L14,6 L14,11.5 C14,11.7454599 13.8231248,11.9496084 13.5898756,11.9919443 L13.5,12 C13.2545401,12 13.0503916,11.8231248 13.0080557,11.5898756 L13,11.5 L13,5 C13,4.44771525 12.5522847,4 12,4 C11.4871642,4 11.0644928,4.38604019 11.0067277,4.88337887 L11,5 L11,11.5 Z"/>
</svg>
