<svg width="24" height="24" fill="none" xmlns="http://www.w3.org/2000/svg">
  <path d="M15 10a1 1 0 100-2 1 1 0 000 2z" fill="#000"/>
  <path d="M5 17v1a1 1 0 001 1h12a1 1 0 001-1v-1h1a1 1 0 001-1V8a1 1 0 00-1-1h-1V6a1 1 0 00-1-1H6a1 1 0 00-1 1v1H4a1 1 0 00-1 1v8a1 1 0 001 1h1zM18 6v8.67l-2.624-3a.5.5 0 00-.76.01l-2.125 2.55-3.115-3.56a.5.5 0 00-.786.043L6 14.413V6h12zM5 16H4V8h1v8zm14 0V8h1v8h-1zM6 18v-1.842l3.044-4.349 3.08 3.52a.5.5 0 00.76-.009l2.125-2.55L18 16.188V18H6z" fill="#000"/>
</svg>
