<svg xmlns="http://www.w3.org/2000/svg" width="18" height="18" viewBox="0 0 18 18">
  <path d="M12.9804544,4.35901845 L12.9975186,4.45024814 L13.352,8 L16.5,8 C16.9753957,8 17.1677044,8.58692614 16.8316198,8.8752938 L16.757285,8.92872418 L13.632,10.803 L13.9975211,14.450273 C14.0393861,14.8691344 13.584468,15.1358257 13.2452464,14.9308427 L13.1745501,14.8795818 L10.566,12.643 L6.75726319,14.9287373 C6.33718763,15.180803 5.86294816,14.746134 6.03186487,14.3219996 L6.07124399,14.242768 L8.231,10.642 L6.17455171,8.87958321 C5.8456624,8.59759902 6.00985878,8.07577061 6.41059983,8.00744675 L6.5,8 L9.816,8 L12.0712535,4.24275212 C12.302406,3.85749804 12.867229,3.95489041 12.9804544,4.35901845 Z M5,13 L5,14 L2,14 L2,13 L5,13 Z M12.154,6.047 L10.3820735,9 L7.849,8.997 L9.52292439,10.432207 L7.953,13.044 L10.6695932,11.4145733 L12.878,13.311 L12.5737363,10.2716121 L14.698,8.999 L12.4468872,9 L12.154,6.047 Z M6,11 L6,12 L3,12 L3,11 L6,11 Z M8,6 L8,7 L5,7 L5,6 L8,6 Z M9,4 L9,5 L6,5 L6,4 L9,4 Z"/>
</svg>
