<svg xmlns="http://www.w3.org/2000/svg" width="24" height="24" viewBox="0 0 24 24">
  <path d="M16.9851482,4.37607597 L16.9987304,4.46439065 L17.322,9 L21.5,9 C21.95954,9 22.1618035,9.55552041 21.8532222,9.85487186 L21.7846195,9.91108606 L17.594,12.812 L17.9987298,18.4643824 C18.0306181,18.9108943 17.5147907,19.1571277 17.1887757,18.8921218 L17.1263221,18.832212 L13.991,15.306 L8.78461266,18.9110908 C8.37120279,19.197309 7.86196884,18.767233 8.02919696,18.329161 L8.0658871,18.2519154 L11.409,12.4 L9.12630988,9.83219827 C8.8587757,9.53124884 9.04033666,9.06713452 9.41650627,9.00659016 L9.5,9 L13.351,9 L16.0658731,4.25193988 C16.2956777,3.84976167 16.8835658,3.95524132 16.9851482,4.37607597 Z M16.12,6.171 L13.9311426,10 L10.611,9.997 L12.6335754,12.272401 L10.024,16.835 L14.1498353,13.9796829 L16.896,17.072 L16.5558136,12.314452 L19.903,9.999 L16.3907369,10 L16.12,6.171 Z M7,16 L7,17 L2,17 L2,16 L7,16 Z M8,13 L8,14 L3,14 L3,13 L8,13 Z M11,7 L11,8 L5,8 L5,7 L11,7 Z M13,4 L13,5 L6,5 L6,4 L13,4 Z"/>
</svg>
