<svg xmlns="http://www.w3.org/2000/svg" width="24" height="24" viewBox="0 0 24 24">
  <path d="M4.61341281,4.02108223 L4.70735979,4.04442744 L19.6650196,10.0274914 L19.8118224,10.1443896 C19.9265202,10.2413935 19.9643141,10.3011421 19.9675749,10.4225 L19.9657264,10.5034987 L19.9491335,10.6904237 L19.8800051,10.8092571 L19.8509103,10.8463403 L19.8163714,10.8784141 L19.7036893,10.9571723 L14.3427504,13.6359505 L18.8535534,18.1464466 C19.0488155,18.3417088 19.0488155,18.6582912 18.8535534,18.8535534 C18.679987,19.0271197 18.4105626,19.0464049 18.2156945,18.9114088 L18.1464466,18.8535534 L13.6357504,14.3429505 L10.9571723,19.7036893 C10.7338634,19.9460783 10.6892016,19.9945561 10.4728578,19.9658991 L10.2729355,19.9317682 L10.1602535,19.85301 L10.1257145,19.8209362 L10.0966198,19.783853 L10.0274914,19.6650196 L8.5028413,15.8542137 C8.82813809,15.7570982 9.13357914,15.6139527 9.4116068,15.4323347 L10.55,18.28 L13.0512957,13.2793746 C13.0769757,13.2282497 13.107908,13.1849852 13.1464466,13.1464466 L13.2062638,13.0952876 L13.2793746,13.0512957 L18.28,10.55 L5.397,5.397 L6.86184098,9.05804089 C6.52645773,9.11982751 6.20782037,9.22942601 5.91325924,9.37950607 L4.04442744,4.70735979 L4.02783456,4.52043481 C4.01897689,4.37047857 4.03617827,4.30190466 4.12180932,4.21584831 L4.18173847,4.16132569 L4.3285413,4.04442744 C4.4800687,4.00551876 4.51037418,3.99773702 4.61341281,4.02108223 Z M7.5,10 C8.88071187,10 10,11.1192881 10,12.5 C10,13.8807119 8.88071187,15 7.5,15 C6.11928813,15 5,13.8807119 5,12.5 C5,11.1192881 6.11928813,10 7.5,10 Z M7.5,11 C6.67157288,11 6,11.6715729 6,12.5 C6,13.3284271 6.67157288,14 7.5,14 C8.32842712,14 9,13.3284271 9,12.5 C9,11.6715729 8.32842712,11 7.5,11 Z"/>
</svg>
