<svg xmlns="http://www.w3.org/2000/svg" width="18" height="18" viewBox="0 0 18 18">
  <path d="M4.5,8 C5.32842712,8 6,8.67157288 6,9.5 C6,10.3284271 5.32842712,11 4.5,11 C3.67157288,11 3,10.3284271 3,9.5 C3,8.67157288 3.67157288,8 4.5,8 Z M8.5,8 C9.32842712,8 10,8.67157288 10,9.5 C10,10.3284271 9.32842712,11 8.5,11 C7.67157288,11 7,10.3284271 7,9.5 C7,8.67157288 7.67157288,8 8.5,8 Z M12.5,8 C13.3284271,8 14,8.67157288 14,9.5 C14,10.3284271 13.3284271,11 12.5,11 C11.6715729,11 11,10.3284271 11,9.5 C11,8.67157288 11.6715729,8 12.5,8 Z M4.5,9 C4.22385763,9 4,9.22385763 4,9.5 C4,9.77614237 4.22385763,10 4.5,10 C4.77614237,10 5,9.77614237 5,9.5 C5,9.22385763 4.77614237,9 4.5,9 Z M8.5,9 C8.22385763,9 8,9.22385763 8,9.5 C8,9.77614237 8.22385763,10 8.5,10 C8.77614237,10 9,9.77614237 9,9.5 C9,9.22385763 8.77614237,9 8.5,9 Z M12.5,9 C12.2238576,9 12,9.22385763 12,9.5 C12,9.77614237 12.2238576,10 12.5,10 C12.7761424,10 13,9.77614237 13,9.5 C13,9.22385763 12.7761424,9 12.5,9 Z"/>
</svg>
