<svg width="24" height="24" viewBox="0 0 24 24" fill="none" xmlns="http://www.w3.org/2000/svg">
<path d="M18.1529 6C18.6417 6 19.0589 6.35341 19.1393 6.8356L20.8059 16.8356C20.9075 17.4451 20.4375 18 19.8195 18H4.18046C3.56252 18 3.09248 17.4451 3.19407 16.8356L4.86073 6.8356C4.9411 6.35341 5.35829 6 5.84713 6H18.1529ZM5.512 8.304L4.246 17H6.778L5.512 8.304ZM18.197 7H6.246L7.802 17H19.753L18.197 7Z" fill="#162D3D"/>
<path d="M17 14V13H10V14H17Z" fill="#162D3D"/>
<path d="M17 11V10H10V11H17Z" fill="#162D3D"/>
</svg>
