<svg xmlns="http://www.w3.org/2000/svg" width="18" height="18" viewBox="0 0 18 18">
  <path d="M8,14 L8,14.5 L8.00805567,14.5898756 C8.05039163,14.8231248 8.25454011,15 8.5,15 C8.74545989,15 8.94960837,14.8231248 8.99194433,14.5898756 L9,14.5 L9,14 L10,14 L10,14.5 C10,15.3284271 9.32842712,16 8.5,16 C7.72030388,16 7.07955132,15.4051119 7.00686658,14.64446 L7,14.5 L7,14 L8,14 Z M8.5,6 C10.4329966,6 12,7.56700338 12,9.5 C12,11.4329966 10.4329966,13 8.5,13 C6.56700338,13 5,11.4329966 5,9.5 C5,7.56700338 6.56700338,6 8.5,6 Z M8.5,7 C7.11928813,7 6,8.11928813 6,9.5 C6,10.8807119 7.11928813,12 8.5,12 C9.88071187,12 11,10.8807119 11,9.5 C11,8.11928813 9.88071187,7 8.5,7 Z M4,8 L4,9 L3.5,9 C3.22385763,9 3,9.22385763 3,9.5 C3,9.74545989 3.17687516,9.94960837 3.41012437,9.99194433 L3.5,10 L4,10 L4,11 L3.5,11 C2.67157288,11 2,10.3284271 2,9.5 C2,8.67157288 2.67157288,8 3.5,8 L4,8 Z M13.5,8 C14.3284271,8 15,8.67157288 15,9.5 C15,10.2796961 14.4051119,10.9204487 13.64446,10.9931334 L13.5,11 L13,11 L13,10 L13.5,10 L13.5898756,9.99194433 C13.8231248,9.94960837 14,9.74545989 14,9.5 C14,9.25454011 13.8231248,9.05039163 13.5898756,9.00805567 L13.5,9 L13,9 L13,8 L13.5,8 Z M8.5,3 C9.32842712,3 10,3.67157288 10,4.5 L10,5 L9,5 L9,4.5 C9,4.22385763 8.77614237,4 8.5,4 C8.25454011,4 8.05039163,4.17687516 8.00805567,4.41012437 L8,4.5 L8,5 L7,5 L7,4.5 C7,3.67157288 7.67157288,3 8.5,3 Z"/>
</svg>
