<svg xmlns="http://www.w3.org/2000/svg" width="18" height="18" viewBox="0 0 18 18">
  <path d="M6,13 L6,13.5 L6.00805567,13.5898756 C6.05039163,13.8231248 6.25454011,14 6.5,14 C6.74545989,14 6.94960837,13.8231248 6.99194433,13.5898756 L7,13.5 L7,13 L8,13 L8,13.5 C8,14.3284271 7.32842712,15 6.5,15 C5.72030388,15 5.07955132,14.4051119 5.00686658,13.64446 L5,13.5 L5,13 L6,13 Z M10,13 L10,13.5 L10.0080557,13.5898756 C10.0503916,13.8231248 10.2545401,14 10.5,14 C10.7454599,14 10.9496084,13.8231248 10.9919443,13.5898756 L11,13.5 L11,13 L12,13 L12,13.5 C12,14.3284271 11.3284271,15 10.5,15 C9.72030388,15 9.07955132,14.4051119 9.00686658,13.64446 L9,13.5 L9,13 L10,13 Z M13,6 L13,12 L4,12 L4,6 L13,6 Z M12,7 L5,7 L5,11 L12,11 L12,7 Z M6.5,3 C7.32842712,3 8,3.67157288 8,4.5 L8,5 L7,5 L7,4.5 C7,4.22385763 6.77614237,4 6.5,4 C6.25454011,4 6.05039163,4.17687516 6.00805567,4.41012437 L6,4.5 L6,5 L5,5 L5,4.5 C5,3.67157288 5.67157288,3 6.5,3 Z M10.5,3 C11.3284271,3 12,3.67157288 12,4.5 L12,5 L11,5 L11,4.5 C11,4.22385763 10.7761424,4 10.5,4 C10.2545401,4 10.0503916,4.17687516 10.0080557,4.41012437 L10,4.5 L10,5 L9,5 L9,4.5 C9,3.67157288 9.67157288,3 10.5,3 Z"/>
</svg>
