<svg xmlns="http://www.w3.org/2000/svg" width="24" height="24" viewBox="0 0 24 24">
  <path d="M14,18 C14,18.5522847 14.4477153,19 15,19 C15.5522847,19 16,18.5522847 16,18 L17,18 C17,19.1045695 16.1045695,20 15,20 C13.8954305,20 13,19.1045695 13,18 L14,18 Z M8,18 C8,18.5522847 8.44771525,19 9,19 C9.55228475,19 10,18.5522847 10,18 L11,18 C11,19.1045695 10.1045695,20 9,20 C7.8954305,20 7,19.1045695 7,18 L8,18 Z M19,7 L19,17 L5,17 L5,7 L19,7 Z M18,8 L6,8 L6,16 L18,16 L18,8 Z M9,4 C10.1045695,4 11,4.8954305 11,6 L10,6 C10,5.44771525 9.55228475,5 9,5 C8.44771525,5 8,5.44771525 8,6 L7,6 C7,4.8954305 7.8954305,4 9,4 Z M15,4 C16.1045695,4 17,4.8954305 17,6 L16,6 C16,5.44771525 15.5522847,5 15,5 C14.4477153,5 14,5.44771525 14,6 L13,6 C13,4.8954305 13.8954305,4 15,4 Z"/>
</svg>
