<svg xmlns="http://www.w3.org/2000/svg" width="24" height="24" viewBox="0 0 24 24">
  <path d="M13.9714294,17.6686052 C13.9906195,17.7760807 14,17.8869449 14,18 C14,19.1045695 13.1045695,20 12,20 C10.8954305,20 10,19.1045695 10,18 C10,17.8869449 10.0093805,17.7760807 10.0274056,17.6681433 C10.3427158,17.7778458 10.6687389,17.8617096 11.0041856,17.9177422 L11,18 C11,18.5522847 11.4477153,19 12,19 C12.5522847,19 13,18.5522847 13,18 L12.9958144,17.9177422 C13.3312611,17.8617096 13.6572842,17.7778458 13.9714294,17.6686052 Z M12,7 C14.7614237,7 17,9.23857625 17,12 C17,14.7614237 14.7614237,17 12,17 C9.23857625,17 7,14.7614237 7,12 C7,9.23857625 9.23857625,7 12,7 Z M12,8 C9.790861,8 8,9.790861 8,12 C8,14.209139 9.790861,16 12,16 C14.209139,16 16,14.209139 16,12 C16,9.790861 14.209139,8 12,8 Z M6,10 C6.11305511,10 6.22391929,10.0093805 6.33185666,10.0274056 C6.22215417,10.3427158 6.13829039,10.6687389 6.08225776,11.0041856 C6.05617961,11.0011695 6.02822638,11 6,11 C5.44771525,11 5,11.4477153 5,12 C5,12.5522847 5.44771525,13 6,13 L6.08225776,12.9958144 C6.13829039,13.3312611 6.22215417,13.6572842 6.3313948,13.9714294 C6.22391929,13.9906195 6.11305511,14 6,14 C4.8954305,14 4,13.1045695 4,12 C4,10.8954305 4.8954305,10 6,10 Z M18,10 C19.1045695,10 20,10.8954305 20,12 C20,13.1045695 19.1045695,14 18,14 C17.8869449,14 17.7760807,13.9906195 17.6681433,13.9725944 C17.7778458,13.6572842 17.8617096,13.3312611 17.9177422,12.9958144 C17.9436304,12.9988226 17.9716777,13 18,13 C18.5522847,13 19,12.5522847 19,12 C19,11.4477153 18.5522847,11 18,11 L17.9177422,11.0041856 C17.8617096,10.6687389 17.7778458,10.3427158 17.6686052,10.0285706 C17.7760807,10.0093805 17.8869449,10 18,10 Z M12,4 C13.1045695,4 14,4.8954305 14,6 C14,6.11305511 13.9906195,6.22391929 13.9725944,6.33185666 C13.6572842,6.22215417 13.3312611,6.13829039 12.9958144,6.08225776 L13,6 C13,5.44771525 12.5522847,5 12,5 C11.4477153,5 11,5.44771525 11,6 L11.0041856,6.08225776 C10.6687389,6.13829039 10.3427158,6.22215417 10.0285706,6.3313948 C10.0093805,6.22391929 10,6.11305511 10,6 C10,4.8954305 10.8954305,4 12,4 Z"/>
</svg>
