<svg xmlns="http://www.w3.org/2000/svg" width="24" height="24" viewBox="0 0 24 24">
  <path d="M13,9 C14.1045695,9 15,9.8954305 15,11 L15,16 L14,16 L14,21 L9,21 L9,16 L8,16 L8,11 C8,9.8954305 8.8954305,9 10,9 L13,9 Z M13,10 L10,10 C9.48716416,10 9.06449284,10.3860402 9.00672773,10.8833789 L9,11 L9,15 L10,15 L10,20 L13,20 L13,15 L14,15 L14,11 C14,10.4871642 13.6139598,10.0644928 13.1166211,10.0067277 L13,10 Z M11.5,4 C12.8807119,4 14,5.11928813 14,6.5 C14,7.88071187 12.8807119,9 11.5,9 C10.1192881,9 9,7.88071187 9,6.5 C9,5.11928813 10.1192881,4 11.5,4 Z M11.5,5 C10.6715729,5 10,5.67157288 10,6.5 C10,7.32842712 10.6715729,8 11.5,8 C12.3284271,8 13,7.32842712 13,6.5 C13,5.67157288 12.3284271,5 11.5,5 Z"/>
</svg>
