<svg xmlns="http://www.w3.org/2000/svg" width="18" height="18" viewBox="0 0 18 18">
  <path d="M10,7 C10.5522847,7 11,7.44771525 11,8 L11,13 L10,13 L10,16 L7,16 L7,13 L6,13 L6,8 C6,7.44771525 6.44771525,7 7,7 L10,7 Z M10,8 L7,8 L7,12 L8,12 L8,15 L9,15 L9,12 L10,12 L10,8 Z M8.5,3 C9.32842712,3 10,3.67157288 10,4.5 C10,5.32842712 9.32842712,6 8.5,6 C7.67157288,6 7,5.32842712 7,4.5 C7,3.67157288 7.67157288,3 8.5,3 Z M8.5,4 C8.22385763,4 8,4.22385763 8,4.5 C8,4.77614237 8.22385763,5 8.5,5 C8.77614237,5 9,4.77614237 9,4.5 C9,4.22385763 8.77614237,4 8.5,4 Z"/>
</svg>
