<svg xmlns="http://www.w3.org/2000/svg" width="18" height="18" viewBox="0 0 18 18">
  <path d="M7,7 C7.55228475,7 8,7.44771525 8,8 L8,13 L7,13 L7,16 L4,16 L4,13 L3,13 L3,8 C3,7.44771525 3.44771525,7 4,7 L7,7 Z M13.2792408,7 C13.7096712,7 14.09181,7.27543009 14.2279241,7.68377223 L16,13 L14,13 L14,16 L11,16 L11,13 L9,13 L10.7720759,7.68377223 C10.90819,7.27543009 11.2903288,7 11.7207592,7 L13.2792408,7 Z M7,8 L4,8 L4,12 L5,12 L5,15 L6,15 L6,12 L7,12 L7,8 Z M13.2792408,8 L11.7207592,8 L10.387,12 L12,12 L12,15 L13,15 L13,12 L14.612,12 L13.2792408,8 Z M5.5,3 C6.32842712,3 7,3.67157288 7,4.5 C7,5.32842712 6.32842712,6 5.5,6 C4.67157288,6 4,5.32842712 4,4.5 C4,3.67157288 4.67157288,3 5.5,3 Z M12.5,3 C13.3284271,3 14,3.67157288 14,4.5 C14,5.32842712 13.3284271,6 12.5,6 C11.6715729,6 11,5.32842712 11,4.5 C11,3.67157288 11.6715729,3 12.5,3 Z M5.5,4 C5.22385763,4 5,4.22385763 5,4.5 C5,4.77614237 5.22385763,5 5.5,5 C5.77614237,5 6,4.77614237 6,4.5 C6,4.22385763 5.77614237,4 5.5,4 Z M12.5,4 C12.2238576,4 12,4.22385763 12,4.5 C12,4.77614237 12.2238576,5 12.5,5 C12.7761424,5 13,4.77614237 13,4.5 C13,4.22385763 12.7761424,4 12.5,4 Z"/>
</svg>
