<svg xmlns="http://www.w3.org/2000/svg" width="18" height="18" viewBox="0 0 18 18">
  <path d="M9.27924078,7 C9.70967119,7 10.09181,7.27543009 10.2279241,7.68377223 L12,13 L10,13 L10,16 L7,16 L7,13 L5,13 L6.77207592,7.68377223 C6.90818997,7.27543009 7.29032881,7 7.72075922,7 L9.27924078,7 Z M9.27924078,8 L7.72075922,8 L6.387,12 L8,12 L8,15 L9,15 L9,12 L10.612,12 L9.27924078,8 Z M8.5,3 C9.32842712,3 10,3.67157288 10,4.5 C10,5.32842712 9.32842712,6 8.5,6 C7.67157288,6 7,5.32842712 7,4.5 C7,3.67157288 7.67157288,3 8.5,3 Z M8.5,4 C8.22385763,4 8,4.22385763 8,4.5 C8,4.77614237 8.22385763,5 8.5,5 C8.77614237,5 9,4.77614237 9,4.5 C9,4.22385763 8.77614237,4 8.5,4 Z"/>
</svg>
