<svg xmlns="http://www.w3.org/2000/svg" width="24" height="24" viewBox="0 0 24 24">
  <path d="M17.81 6.97l-3.98-2.45a3.452 3.452 0 00-3.66 0L6.19 6.97A2.479 2.479 0 005 9.1v4.78a2.492 2.492 0 001.19 2.13l3.98 2.45a3.48 3.48 0 003.66 0l.17-.1v-1.17l-.69.42a2.64 2.64 0 01-.81.3v-5.63l5.48-3.37c0 .06.02.12.02.19V11h1V9.1a2.479 2.479 0 00-1.19-2.13zM11.5 17.91a2.641 2.641 0 01-.81-.3l-3.98-2.45A1.507 1.507 0 016 13.88V9.1c0-.07.02-.13.02-.19l5.48 3.37v5.63zm.5-6.5l-5.53-3.4c.073-.072.153-.135.24-.19l2.16-1.33 5.57 3.42-2.44 1.5zm3.39-2.08L9.83 5.9l.86-.53a2.476 2.476 0 012.62 0l3.98 2.45c.087.055.167.118.24.19l-2.14 1.32zM20 15h-2v-2h-1v2h-2v1h2v2h1v-2h2v-1z"/>
</svg>
