<svg xmlns="http://www.w3.org/2000/svg" width="24" height="24" viewBox="0 0 24 24">
  <path d="M7.012 8c-.603 0-1.09.183-1.458.547C5.184 8.913 5 9.4 5 10.012v3.966c0 .61.185 1.101.554 1.469.369.368.855.553 1.458.553.61 0 1.1-.185 1.47-.553.368-.368.552-.859.552-1.469v-.168c0-.075-.036-.111-.112-.111l-.848-.045c-.075 0-.112.037-.112.111v.291c0 .305-.087.551-.263.738a.901.901 0 01-.687.278c-.284 0-.51-.093-.682-.278-.171-.187-.256-.433-.256-.738V9.944c0-.305.085-.551.256-.737.172-.186.398-.28.682-.28.284 0 .512.094.687.28.176.186.263.432.263.737v.291c0 .074.037.112.112.112l.848-.046c.076 0 .112-.036.112-.111v-.178c0-.612-.184-1.099-.552-1.465-.37-.364-.86-.547-1.47-.547zm6.162 4.357c-.227-.208-.563-.48-1.011-.815-.47-.343-.787-.617-.95-.822a1.163 1.163 0 01-.245-.754c0-.328.08-.583.246-.765a.81.81 0 01.637-.274c.275 0 .497.102.67.307.17.205.256.475.256.81v.302c0 .075.038.112.112.112h.827c.075 0 .112-.037.112-.112v-.279c0-.618-.181-1.117-.542-1.497-.361-.38-.841-.57-1.435-.57-.574 0-1.04.177-1.397.53-.358.354-.537.832-.537 1.436 0 .38.074.712.223.995.149.283.332.524.548.726.216.201.514.443.895.726.34.254.589.445.74.575.154.131.277.278.37.441.094.165.14.355.14.571 0 .32-.088.58-.263.776a.845.845 0 01-.664.296.82.82 0 01-.66-.307c-.171-.205-.257-.478-.257-.82v-.236c0-.074-.037-.112-.11-.112h-.828c-.074 0-.111.038-.111.112V14c0 .596.18 1.078.542 1.447.36.368.835.553 1.424.553.588 0 1.065-.188 1.43-.565.365-.376.548-.877.548-1.503 0-.342-.062-.638-.185-.888a2.307 2.307 0 00-.525-.687zm5.285.688a2.307 2.307 0 00-.525-.687c-.226-.21-.564-.48-1.012-.816-.468-.343-.786-.617-.95-.821a1.168 1.168 0 01-.244-.754c0-.328.08-.583.245-.766a.815.815 0 01.637-.274c.276 0 .498.103.67.308.17.205.257.474.257.81v.302c0 .074.037.11.112.11h.827c.074 0 .112-.036.112-.11v-.28c0-.618-.181-1.117-.543-1.497-.36-.38-.84-.57-1.435-.57-.573 0-1.04.178-1.397.53-.358.355-.536.833-.536 1.437 0 .38.074.71.223.994.149.284.33.525.548.726.216.2.513.443.894.726.342.254.59.445.742.575.153.13.276.278.369.442.093.165.14.354.14.57 0 .32-.088.58-.262.777a.85.85 0 01-.665.295.82.82 0 01-.66-.307c-.172-.204-.257-.478-.257-.82v-.235c0-.075-.038-.112-.111-.112h-.827c-.075 0-.111.037-.111.112V14c0 .596.18 1.079.54 1.447.363.369.837.553 1.426.553.588 0 1.065-.187 1.43-.564.365-.376.548-.877.548-1.503 0-.342-.062-.64-.185-.888z"/>
</svg>
