<svg xmlns="http://www.w3.org/2000/svg" width="24" height="24" viewBox="0 0 24 24">
  <path d="M10.5 5c.249 0 .497.02.743.06a4.543 4.543 0 013.592 3.24 4.426 4.426 0 01-.127 2.783 1 1 0 00.229 1.059l3.63 3.63a1.358 1.358 0 01.182 1.789 1.277 1.277 0 01-1.89.1l-3.721-3.721a.999.999 0 00-1.06-.229A4.47 4.47 0 0110.5 14a4.51 4.51 0 01-4.44-3.753 4.475 4.475 0 01.052-1.721l2.68 2.681a1 1 0 001.415 0l2-2a1 1 0 000-1.414L9.547 5.1c.314-.067.633-.1.953-.1zm0-1a5.45 5.45 0 00-1.165.125 1.007 1.007 0 00-.516 1.694l2.68 2.681-2 2-2.68-2.681a.977.977 0 00-.7-.293 1.02 1.02 0 00-1 .809A5.5 5.5 0 0010.499 15a5.479 5.479 0 001.933-.356l3.72 3.721a2.273 2.273 0 003.37-.174 2.36 2.36 0 00-.248-3.129l-3.63-3.63a5.442 5.442 0 00.155-3.4 5.534 5.534 0 00-4.4-3.958 5.699 5.699 0 00-.9-.074z"/>
</svg>
