<svg xmlns="http://www.w3.org/2000/svg" width="24" height="24" viewBox="0 0 24 24">
  <path d="M11.972 2a9.837 9.837 0 00-7.051 3.002A10.397 10.397 0 002 12.25c0 2.152.657 4.248 1.88 5.994a9.996 9.996 0 004.934 3.733c.499.09.676-.217.676-.49v-1.742c-2.77.614-3.324-1.379-3.324-1.379a2.726 2.726 0 00-1.108-1.503c-.908-.626.067-.615.067-.615.317.043.62.161.885.345.265.184.486.428.644.714.136.252.32.474.54.652a2.073 2.073 0 002.364.19c.045-.517.27-1.001.63-1.366-2.216-.262-4.543-1.139-4.543-5.068-.014-1.017.356-2 1.03-2.745a3.832 3.832 0 01.1-2.722s.832-.273 2.737 1.06a9.644 9.644 0 012.505-.354c.842.008 1.68.127 2.493.354 1.906-1.333 2.737-1.06 2.737-1.06.365.862.4 1.834.1 2.722a4.003 4.003 0 011.03 2.745c0 3.94-2.338 4.806-4.554 5.057.237.25.42.549.536.877.116.327.164.677.14 1.025v2.813c0 .342.177.592.687.49a9.996 9.996 0 004.934-3.733A10.446 10.446 0 0022 12.25a10.5 10.5 0 00-.764-3.935 10.272 10.272 0 00-2.176-3.333 9.956 9.956 0 00-3.254-2.218A9.736 9.736 0 0011.972 2z"/>
</svg>
