<svg xmlns="http://www.w3.org/2000/svg" width="24" height="24" fill="none" viewBox="0 0 24 24">
  <path fill="#162D3D" d="M11.985 5h-1V3h1v2zM18.016 12v-1h2v1h-2zM4 11v1.001h2v-1H4zM6.414 7.122L5 5.708 5.708 5l1.414 1.414-.708.708zM17.602 7.122l1.414-1.414L18.308 5l-1.414 1.414.708.708z"/>
  <path fill="#162D3D" fill-rule="evenodd" d="M7.984 11c0-2.205 1.795-4 4-4 2.206 0 4 1.795 4 4 0 1.378-.983 2.996-1.985 3.5l.01 2.53c.002.998-.787 1.949-2.016 1.949-1.228 0-1.984-.948-1.984-1.948L10 14.5C9.015 13.978 7.984 12.38 7.984 11zM13 17.168c-.001.551-.486.83-.984.833-.499.003-1.016-.282-1.016-.833L10.986 15h1.998L13 17.168zM14.984 11c0-1.654-1.345-3-3-3-1.654 0-3 1.346-3 3 0 .84.35 1.594.907 2.137.092.09.197.162.302.234.162.113.324.225.432.397.031.05.05.13.073.222l.002.01h2.58a.659.659 0 01.067-.246c.105-.167.26-.27.418-.377.101-.068.203-.136.293-.222A2.97 2.97 0 0014.985 11z" clip-rule="evenodd"/>
</svg>
