<svg xmlns="http://www.w3.org/2000/svg" width="24" height="24" viewBox="0 0 24 24">
  <path d="M6.99 8.104c-.076 0-.113.038-.113.112v5.844c0 .297-.084.541-.25.73a.831.831 0 01-.654.284.828.828 0 01-.65-.284c-.169-.189-.252-.433-.252-.73v-.904c0-.074-.038-.112-.112-.112h-.848c-.074 0-.11.038-.11.112v.881c0 .588.18 1.062.54 1.422.36.361.838.541 1.432.541.596 0 1.073-.18 1.433-.54.361-.36.542-.835.542-1.423v-5.82c0-.075-.037-.113-.112-.113H6.99zm5.302 4.26a14.194 14.194 0 00-1.01-.814c-.468-.342-.784-.615-.948-.82a1.168 1.168 0 01-.244-.753c0-.327.08-.58.244-.763a.814.814 0 01.636-.274c.276 0 .498.103.67.307.17.205.256.474.256.808v.302c0 .074.037.111.11.111h.827c.074 0 .11-.037.11-.11v-.28c0-.617-.18-1.115-.54-1.495-.36-.379-.838-.569-1.433-.569-.572 0-1.037.177-1.394.53-.357.354-.535.832-.535 1.433 0 .38.074.711.223.993.149.283.33.524.547.725.215.201.513.442.892.725.34.253.589.444.74.574.154.131.276.278.37.441.092.163.139.353.139.57 0 .318-.088.577-.263.774a.845.845 0 01-.663.295.817.817 0 01-.658-.307c-.171-.204-.256-.477-.256-.819v-.234c0-.075-.038-.112-.112-.112h-.825c-.074 0-.112.037-.112.112v.29c0 .594.18 1.076.54 1.444.362.368.835.552 1.423.552.587 0 1.064-.188 1.428-.563.364-.376.546-.876.546-1.5 0-.342-.061-.638-.184-.887a2.328 2.328 0 00-.524-.686zM15 15h4v-2h-4v2zm1-4c0-.55.449-1 1-1 .55 0 1 .45 1 1v1h-2v-1zm3 1v-1c0-1.103-.897-2-2-2s-2 .897-2 2v1h-1v3a1 1 0 001 1h4a1 1 0 001-1v-3h-1z"/>
</svg>
