<svg xmlns="http://www.w3.org/2000/svg" width="24" height="24" viewBox="0 0 24 24">
  <mask id="a">
    <path d="M17 12h1V6h-6v1h4.293l-9.26 9.26V12h-1v6h6v-1H7.707L17 7.706V12z"/>
  </mask>
  <path d="M17 12h1V6h-6v1h4.293l-9.26 9.26V12h-1v6h6v-1H7.707L17 7.706V12z"/>
  <path d="M18 12v1h1v-1h-1zm-1 0h-1v1h1v-1zm1-6h1V5h-1v1zm-6 0V5h-1v1h1zm0 1h-1v1h1V7zm4.293 0l.707.706L18.707 6h-2.414v1zm-9.26 9.26h-1v2.414l1.707-1.707-.707-.707zm0-4.26h1v-1h-1v1zm-1 0v-1h-1v1h1zm0 6h-1v1h1v-1zm6 0v1h1v-1h-1zm0-1h1v-1h-1v1zm-4.326 0L7 16.293 5.293 18h2.414v-1zM17 7.706h1V5.292L16.293 7l.707.707zM18 11h-1v2h1v-2zm-5-4V6h-2v1h2zm3.293-1H12v2h4.293V6zM7.74 16.967L17 7.707l-1.414-1.415-9.26 9.26 1.414 1.415zm.293-.707V12h-2v4.26h2zm-1-5.26h-1v2h1v-2zm6 7v-1h-2v1h2zm-1-2H7.707v2h4.326v-2zm4.26-9L7 16.292l1.414 1.414 9.293-9.293-1.414-1.415zM18 12V7.705h-2V12h2zm-1-6v6h2V6h-2zm-5 1h6V5h-6v2zm-6.967 5v6h2v-6h-2zm1 7h6v-2h-6v2z" mask="url(#a)"/>
</svg>
