<svg xmlns="http://www.w3.org/2000/svg" width="24" height="24" viewBox="0 0 24 24">
  <path d="M17.81 6.966l-3.976-2.447a3.48 3.48 0 00-3.668 0L6.19 6.966A2.484 2.484 0 005 9.1v4.787a2.486 2.486 0 001.19 2.13l3.975 2.446a3.48 3.48 0 003.669 0l3.976-2.446a2.486 2.486 0 001.19-2.13V9.1a2.483 2.483 0 00-1.19-2.134zM10.689 5.37a2.492 2.492 0 012.622 0l3.975 2.446c.087.058.168.125.241.2L15.393 9.33 9.828 5.9l.861-.53zM8.875 6.487l5.565 3.425-2.44 1.5-5.527-3.4a1.48 1.48 0 01.241-.2l2.161-1.325zM6.714 15.16A1.491 1.491 0 016 13.882V9.1c.004-.063.012-.125.024-.186l5.476 3.37v5.632a2.5 2.5 0 01-.811-.3L6.714 15.16zM18 11.978v1.9a1.49 1.49 0 01-.714 1.278l-3.976 2.446c-.25.147-.524.248-.81.3v-5.623l5.476-3.37c.012.063.02.127.024.19v2.884-.005z"/>
</svg>
