<svg xmlns="http://www.w3.org/2000/svg" width="24" height="24" viewBox="0 0 24 24">
  <path d="M12 9H8V8h4v1zm4 0V6.5A2.5 2.5 0 0013.5 4h-7A2.5 2.5 0 004 6.5v10A2.5 2.5 0 006.5 19H9v-1H6.5A1.5 1.5 0 015 16.5v-10A1.5 1.5 0 016.5 5h7A1.5 1.5 0 0115 6.5V9h1zm3 5v-1a2 2 0 00-2-2h-1v1h1a1 1 0 011 1v1a1.987 1.987 0 00.691 1.5A1.988 1.988 0 0018 17v1a1 1 0 01-1 1h-1v1h1a2 2 0 002-2v-1a1 1 0 011-1v-1a1 1 0 01-1-1zm-8-1v1a1 1 0 01-1 1v1a1 1 0 011 1v1a2 2 0 002 2h1v-1h-1a1 1 0 01-1-1v-1a1.987 1.987 0 00-.691-1.5A1.988 1.988 0 0012 14v-1a1 1 0 011-1h1v-1h-1a2 2 0 00-2 2z"/>
</svg>
