<svg xmlns="http://www.w3.org/2000/svg" width="24" height="24" viewBox="0 0 24 24">
  <path d="M14.088 13H5v-1h6.92-.933C8.79 12 7 10.314 7 8.242a3.91 3.91 0 011.273-2.855A5.125 5.125 0 0111.791 4c1.3 0 2.526.471 3.453 1.326l1.018.94-1.358 1.468-1.017-.939c-1.094-1.01-3.094-1.011-4.192.001-.47.435-.695.928-.695 1.446C9 9.212 9.892 10 10.987 10h.933c1.637 0 3.08.797 3.912 2H20v1h-3.654c.154.435.237.9.237 1.382 0 2.547-2.207 4.618-4.919 4.618h-.158c-1.862 0-3.542-.967-4.385-2.523l1.758-.954c.486.898 1.517 1.477 2.627 1.477h.158c1.61 0 2.92-1.175 2.92-2.618 0-.515-.184-.992-.496-1.382z"/>
</svg>
