<svg xmlns="http://www.w3.org/2000/svg" width="18" height="18" viewBox="0 0 18 18">
  <path d="M6.5 3.32a2.5 2.5 0 00-.99.2A2.662 2.662 0 003.82 6v.05c.001.699.261 1.372.73 1.89A5.1 5.1 0 002 12.5a.5.5 0 00.5.5H8v-1H3.03a3.827 3.827 0 012.64-3.43.5.5 0 00.09-.93 1.83 1.83 0 01-.94-1.59A1.727 1.727 0 016.5 4.32a1.727 1.727 0 011.68 1.73 1.83 1.83 0 01-.94 1.59.5.5 0 00.09.93c.279.079.547.19.8.33.133-.323.383-.583.7-.73-.12-.08-.25-.16-.38-.23a2.824 2.824 0 00.73-1.89V6a2.662 2.662 0 00-1.69-2.48 2.5 2.5 0 00-.99-.2zm6 2.68A2.5 2.5 0 0010 8.5V9h-.5a.5.5 0 00-.5.5V13a2 2 0 002 2h3a2 2 0 002-2V9.5a.5.5 0 00-.5-.5H15v-.5A2.5 2.5 0 0012.5 6zM11 9v-.5a1.5 1.5 0 013 0V9h-3zm0 5a1 1 0 01-1-1v-3h5v3a1 1 0 01-1 1h-3zm2-3h-1v2h1v-2z"/>
</svg>
