<svg width="24px" height="24px" viewBox="0 0 24 24" version="1.1" xmlns="http://www.w3.org/2000/svg" xmlns:xlink="http://www.w3.org/1999/xlink">
    <title>Reaction / Meduim / Angry_Meduim_24X24</title>
    <g id="Reaction-/-Meduim-/-Angry_Meduim_24X24" stroke="none" stroke-width="1" fill="none" fill-rule="evenodd">
        <path d="M23.9998,12 C23.9998,18.627 18.6268,24 11.9998,24 C5.3728,24 -0.0002,18.627 -0.0002,12 C-0.0002,5.373 5.3728,-5.68434189e-14 11.9998,-5.68434189e-14 C18.6268,-5.68434189e-14 23.9998,5.373 23.9998,12" id="Background" fill="#F5592D"></path>
        <path d="M12.0004,14.9995 C13.9294,14.9995 15.7324,15.8955 17.0774,17.5215 L15.9214,18.4785 C14.8674,17.2025 13.4734,16.4995 12.0004,16.4995 L11.9994,16.4995 C10.5264,16.4995 9.1334,17.2025 8.0774,18.4785 L6.9214,17.5215 C8.2674,15.8955 10.0714,14.9995 11.9994,14.9995 L12.0004,14.9995 Z M20.0684,9.0225 L20.4314,10.4775 L17.4404,11.2255 C17.5474,11.4545 17.6254,11.7095 17.6254,11.9995 C17.6254,12.8285 17.1214,13.4995 16.5004,13.4995 C15.8784,13.4995 15.3754,12.8285 15.3754,11.9995 C15.3754,11.9045 15.4034,11.8215 15.4154,11.7315 L15.4154,11.7315 L14.4314,11.9775 L14.0684,10.5225 L20.0684,9.0225 Z M3.9311,9.0225 L9.9311,10.5225 L9.5681,11.9775 L8.5841,11.7315 C8.5971,11.8215 8.6251,11.9045 8.6251,11.9995 C8.6251,12.8285 8.1211,13.4995 7.5001,13.4995 C6.8791,13.4995 6.3751,12.8285 6.3751,11.9995 C6.3751,11.7095 6.4531,11.4545 6.5601,11.2255 L6.5601,11.2255 L3.5681,10.4775 L3.9311,9.0225 Z" id="Face" fill="#000000"></path>
    </g>
</svg>
