<svg width="20px" height="20px" viewBox="0 0 20 20" version="1.1" xmlns="http://www.w3.org/2000/svg" xmlns:xlink="http://www.w3.org/1999/xlink">
    <title>Reaction / Small / Angry_Small_20X20</title>
    <g id="Reaction-/-Small-/-Angry_Small_20X20" stroke="none" stroke-width="1" fill="none" fill-rule="evenodd">
        <path d="M20,10 C20,15.523 15.523,20 10,20 C4.477,20 0,15.523 0,10 C0,4.477 4.477,0 10,0 C15.523,0 20,4.477 20,10" id="Background" fill="#F5592D"></path>
        <path d="M10.0004,12.4999 C11.6074,12.4999 13.1104,13.2469 14.2314,14.6019 L13.2684,15.3989 C12.3894,14.3359 11.2284,13.7499 10.0004,13.7499 L9.9994,13.7499 C8.7714,13.7499 7.6104,14.3359 6.7314,15.3989 L5.7684,14.6019 C6.8894,13.2469 8.3924,12.4999 9.9994,12.4999 L10.0004,12.4999 Z M16.7229,7.5194 L17.0259,8.7314 L14.5339,9.3544 C14.6229,9.5454 14.6879,9.7584 14.6879,10.0004 C14.6879,10.6904 14.2679,11.2504 13.7499,11.2504 C13.2329,11.2504 12.8129,10.6904 12.8129,10.0004 C12.8129,9.97373333 12.8154556,9.94828889 12.8192333,9.92343704 L12.8459,9.7764 L12.0259,9.9814 L11.7229,8.7694 L16.7229,7.5194 Z M3.2761,7.5194 L8.2761,8.7694 L7.9731,9.9814 L7.1541,9.7764 C7.1641,9.8514 7.1871,9.9204 7.1871,10.0004 C7.1871,10.6904 6.7671,11.2504 6.2501,11.2504 C5.7321,11.2504 5.3121,10.6904 5.3121,10.0004 C5.3121,9.7584 5.3771,9.5454 5.4661,9.3544 L5.4661,9.3544 L2.9731,8.7314 L3.2761,7.5194 Z" id="Face" fill="#000000"></path>
    </g>
</svg>
