<svg width="20px" height="20px" viewBox="0 0 20 20" version="1.1" xmlns="http://www.w3.org/2000/svg" xmlns:xlink="http://www.w3.org/1999/xlink">
    <title>Reaction / Small / Clapping_Small_20X20</title>
    <g id="Reaction-/-Small-/-Clapping_Small_20X20" stroke="none" stroke-width="1" fill="none" fill-rule="evenodd">
        <path d="M19.7775,11.5959 C19.3895,11.0439 18.6275,10.9109 18.0745,11.2989 L19.2175,10.4949 C19.7695,10.1069 19.9025,9.3449 19.5145,8.7919 C19.1265,8.2399 18.3635,8.1069 17.8115,8.4959 L18.9535,7.6929 C19.5055,7.3039 19.6375,6.5419 19.2495,5.9899 C18.8615,5.4379 18.0995,5.3049 17.5475,5.6929 L15.1285,7.3939 L16.4055,6.4959 C16.9575,6.1079 17.0905,5.3459 16.7015,4.7929 C16.3135,4.2409 15.5515,4.1079 14.9995,4.4959 L9.5415,8.3349 L8.0545,7.5609 L8.7725,7.0559 C9.2775,6.7009 9.3985,6.0039 9.0435,5.4989 C8.6885,4.9939 7.9915,4.8729 7.4865,5.2279 L4.7445,7.1569 L5.6015,8.3739 L4.2515,9.3229 C2.1405,10.8069 1.6325,13.7219 3.1175,15.8319 L4.6525,18.0149 C6.1375,20.1259 9.0505,20.6339 11.1615,19.1489 L14.2185,16.9989 L19.4805,13.2989 C20.0325,12.9099 20.1655,12.1479 19.7775,11.5959" id="Hand2" fill="#FC9D06"></path>
        <path d="M17.2643,9.6086 C16.8143,9.1586 16.0843,9.1586 15.6343,9.6086 L12.6733,12.5696 L12.6033,12.1736 L16.3333,8.4436 C16.7833,7.9936 16.7833,7.2636 16.3333,6.8146 C15.8833,6.3636 15.1533,6.3636 14.7033,6.8146 L12.1143,9.4026 L12.0443,9.0066 L15.4013,5.6506 C15.8513,5.2006 15.8513,4.4706 15.4013,4.0206 C14.9513,3.5706 14.2213,3.5706 13.7713,4.0206 L9.6663,8.1266 L9.3123,8.0136 L12.6083,4.7186 C13.0583,4.2686 13.0583,3.5386 12.6083,3.0886 C12.1583,2.6386 11.4283,2.6386 10.9783,3.0886 L6.8373,7.2296 L6.4843,7.1176 L7.0943,6.5076 C7.5053,6.0966 7.5053,5.4296 7.0943,5.0176 C6.6823,4.6066 6.0153,4.6066 5.6043,5.0176 L4.2223,6.4006 L1.4403,9.1816 C-0.4797,11.1016 -0.4797,14.2146 1.4403,16.1356 L3.4273,18.1226 C5.3473,20.0426 8.4603,20.0426 10.3803,18.1226 L13.1623,15.3406 L17.2643,11.2386 C17.7143,10.7886 17.7143,10.0586 17.2643,9.6086" id="Hand" fill="#FFCD00"></path>
        <path d="M15.4014,9.3756 L15.6344,9.6086 L12.2274,13.0156 L11.9944,12.7826 L15.4014,9.3756 Z M14.3535,6.6979 L14.5865,6.9309 L10.3645,11.1529 L10.1315,10.9199 L14.3535,6.6979 Z M12.6079,4.7184 L12.8409,4.9514 L8.5019,9.2904 L8.2689,9.0574 L12.6079,4.7184 Z M7.0938,6.508 L7.3268,6.741 L4.9018,9.166 L4.6688,8.933 L7.0938,6.508 Z" id="Fingers" fill="#FC9D06"></path>
        <path d="M2.5,5 L2.5,6.25 L0,6.25 L0,5 L2.5,5 Z M0.8841,7.10542736e-15 L3.3841,2.5 L2.5001,3.384 L0.0001,0.884 L0.8841,7.10542736e-15 Z M6.25,0 L6.25,2.5 L5,2.5 L5,0 L6.25,0 Z" id="Reaction" fill="#000000"></path>
    </g>
</svg>
