<svg width="24px" height="24px" viewBox="0 0 24 24" version="1.1" xmlns="http://www.w3.org/2000/svg" xmlns:xlink="http://www.w3.org/1999/xlink">
    <title>Reaction / Meduim / Sad_Meduim_24X24</title>
    <g id="Reaction-/-Meduim-/-Sad_Meduim_24X24" stroke="none" stroke-width="1" fill="none" fill-rule="evenodd">
        <path d="M23.9998,12 C23.9998,18.627 18.6268,24 11.9998,24 C5.3728,24 -0.0002,18.627 -0.0002,12 C-0.0002,5.373 5.3728,-5.68434189e-14 11.9998,-5.68434189e-14 C18.6268,-5.68434189e-14 23.9998,5.373 23.9998,12" id="Background" fill="#FFCD00"></path>
        <path d="M11.9999,14.9995 C13.9279,14.9995 15.7309,15.8955 17.0769,17.5215 L15.9219,18.4785 C14.9280176,17.2775588 13.6356163,16.5841886 12.2589584,16.5067711 L11.9999,16.4995 C10.5279,16.4995 9.1349,17.2025 8.0769,18.4785 L6.9229,17.5215 C8.20480476,15.9729286 9.90212902,15.0864887 11.7254872,15.0055773 L11.9999,14.9995 Z M5.9998,9 C6.6218,9 7.1248,9.671 7.1248,10.5 C7.1248,11.328 6.6218,12 5.9998,12 C5.3788,12 4.8748,11.328 4.8748,10.5 C4.8748,9.671 5.3788,9 5.9998,9 Z M17.9998,9 C18.6218,9 19.1248,9.671 19.1248,10.5 C19.1248,11.328 18.6218,12 17.9998,12 C17.3788,12 16.8748,11.328 16.8748,10.5 C16.8748,9.671 17.3788,9 17.9998,9 Z" id="Face" fill="#000000"></path>
        <path d="M4.4998,13.5 L0.6628,17.25 C-0.7532,18.634 0.2498,21 2.2518,21 C3.4938,21 4.4998,20.016 4.4998,18.803 L4.4998,13.5 Z" id="Tears" fill="#318EFE"></path>
    </g>
</svg>
