<svg width="20px" height="20px" viewBox="0 0 20 20" version="1.1" xmlns="http://www.w3.org/2000/svg" xmlns:xlink="http://www.w3.org/1999/xlink">
    <title>Reaction / Small / Sad_Small_20X20</title>
    <g id="Reaction-/-Small-/-Sad_Small_20X20" stroke="none" stroke-width="1" fill="none" fill-rule="evenodd">
        <path d="M20,10 C20,15.522 15.523,20 10,20 C4.478,20 0,15.522 0,10 C0,4.477 4.478,0 10,0 C15.523,0 20,4.477 20,10" id="Background" fill="#FFCD00"></path>
        <path d="M10.0009,12.5004 C11.6059,12.5004 13.1089,13.2464 14.2309,14.6014 L13.2689,15.3984 C12.3879,14.3354 11.2279,13.7504 10.0009,13.7504 L9.9999,13.7504 C8.7729,13.7504 7.6119,14.3354 6.7309,15.3984 L5.7689,14.6014 C6.8919,13.2464 8.3939,12.5004 9.9999,12.5004 L10.0009,12.5004 Z M5.0005,7.5 C5.5185,7.5 5.9375,8.06 5.9375,8.75 C5.9375,9.44 5.5185,10 5.0005,10 C4.4825,10 4.0625,9.44 4.0625,8.75 C4.0625,8.06 4.4825,7.5 5.0005,7.5 Z M15.0005,7.5 C15.5185,7.5 15.9375,8.06 15.9375,8.75 C15.9375,9.44 15.5185,10 15.0005,10 C14.4825,10 14.0625,9.44 14.0625,8.75 C14.0625,8.06 14.4825,7.5 15.0005,7.5 Z" id="Face" fill="#000000"></path>
        <path d="M3.75,11.25 L0.553,14.375 C-0.627,15.528 0.208,17.5 1.877,17.5 C2.912,17.5 3.75,16.68 3.75,15.669 L3.75,11.25 Z" id="Tears" fill="#318EFE"></path>
    </g>
</svg>
