<svg width="16px" height="16px" viewBox="0 0 16 16" version="1.1" xmlns="http://www.w3.org/2000/svg" xmlns:xlink="http://www.w3.org/1999/xlink">
    <title>Reaction / XSmall / Smiley_XSmall_16X16</title>
    <g id="Reaction-/-XSmall-/-Smiley_XSmall_16X16" stroke="none" stroke-width="1" fill="none" fill-rule="evenodd">
        <path d="M15.9998,8.0002 C15.9998,12.4182 12.4178,16.0002 7.9998,16.0002 C3.5818,16.0002 -0.0002,12.4182 -0.0002,8.0002 C-0.0002,3.5822 3.5818,0.0002 7.9998,0.0002 C12.4178,0.0002 15.9998,3.5822 15.9998,8.0002" id="Background" fill="#FFCD00"></path>
        <path d="M11.9998,8.0002 C11.9998,9.5102 11.1698,10.8202 9.9298,11.5002 C9.6638,11.6495333 9.3782,11.5506 9.07808148,11.4025941 L8.68461481,11.2009407 C8.46202222,11.0913111 8.23313333,11.0002 7.9998,11.0002 C7.76646667,11.0002 7.53757778,11.0913111 7.31498519,11.2009407 L6.92151852,11.4025941 C6.6214,11.5506 6.3358,11.6495333 6.0698,11.5002 C4.8298,10.8202 3.9998,9.5102 3.9998,8.0002 L11.9998,8.0002 Z M3.9998,4.0002 C4.4148,4.0002 4.7498,4.4482 4.7498,5.0002 C4.7498,5.5522 4.4148,6.0002 3.9998,6.0002 C3.5858,6.0002 3.2498,5.5522 3.2498,5.0002 C3.2498,4.4482 3.5858,4.0002 3.9998,4.0002 Z M11.9998,4.0002 C12.4148,4.0002 12.7498,4.4482 12.7498,5.0002 C12.7498,5.5522 12.4148,6.0002 11.9998,6.0002 C11.5858,6.0002 11.2498,5.5522 11.2498,5.0002 C11.2498,4.4482 11.5858,4.0002 11.9998,4.0002 Z" id="Face" fill="#000000"></path>
        <path d="M9.93,11.5002 C9.36,11.8202 8.7,12.0002 8,12.0002 C7.3,12.0002 6.64,11.8202 6.07,11.5002 C6.3,10.6402 7.08,10.0102 8,10.0102 C8.92,10.0102 9.7,10.6402 9.93,11.5002" id="Tongue" fill="#F5592D"></path>
    </g>
</svg>
