<svg width="20px" height="20px" viewBox="0 0 20 20" version="1.1" xmlns="http://www.w3.org/2000/svg" xmlns:xlink="http://www.w3.org/1999/xlink">
    <title>Reaction / Small / Smiley_Small_20X20</title>
    <g id="Reaction-/-Small-/-Smiley_Small_20X20" stroke="none" stroke-width="1" fill="none" fill-rule="evenodd">
        <path d="M19.9998,10.0002 C19.9998,15.5222 15.5228,20.0002 9.9998,20.0002 C4.4778,20.0002 -0.0002,15.5222 -0.0002,10.0002 C-0.0002,4.4772 4.4778,0.0002 9.9998,0.0002 C15.5228,0.0002 19.9998,4.4772 19.9998,10.0002" id="Background" fill="#FFCD00"></path>
        <path d="M14.9998,10.0002 C14.9998,11.8872 13.9628,13.5252 12.4128,14.3752 C12.1008625,14.5502 11.7674875,14.4524461 11.4178669,14.2871019 L10.803572,13.9757249 C10.5417922,13.8502977 10.2732375,13.7502 9.9998,13.7502 C9.671675,13.7502 9.35058125,13.8943406 9.03984102,14.0534227 L8.732675,14.2127 L8.492408,14.328 C8.17548,14.4672 7.8726,14.5352 7.5878,14.3752 C6.0378,13.5252 4.9998,11.8872 4.9998,10.0002 L14.9998,10.0002 Z M5.0003,5.0002 C5.5183,5.0002 5.9373,5.5602 5.9373,6.2502 C5.9373,6.9402 5.5183,7.5002 5.0003,7.5002 C4.4823,7.5002 4.0623,6.9402 4.0623,6.2502 C4.0623,5.5602 4.4823,5.0002 5.0003,5.0002 Z M15.0003,5.0002 C15.5183,5.0002 15.9373,5.5602 15.9373,6.2502 C15.9373,6.9402 15.5183,7.5002 15.0003,7.5002 C14.4823,7.5002 14.0623,6.9402 14.0623,6.2502 C14.0623,5.5602 14.4823,5.0002 15.0003,5.0002 Z" id="Face" fill="#000000"></path>
        <path d="M12.4124,14.3752 C11.7004,14.7752 10.8744,15.0002 9.9994,15.0002 C9.1244,15.0002 8.3004,14.7752 7.5874,14.3752 C7.8744,13.3002 8.8494,12.5122 9.9994,12.5122 C11.1504,12.5122 12.1244,13.3002 12.4124,14.3752" id="Tongue" fill="#F5592D"></path>
    </g>
</svg>
