<svg width="16px" height="16px" viewBox="0 0 16 16" version="1.1" xmlns="http://www.w3.org/2000/svg" xmlns:xlink="http://www.w3.org/1999/xlink">
    <title>Reaction / XSmall / Surprised_XSmall_16X16</title>
    <g id="Reaction-/-XSmall-/-Surprised_XSmall_16X16" stroke="none" stroke-width="1" fill="none" fill-rule="evenodd">
        <path d="M16,8.0002 C16,12.4182 12.418,16.0002 8,16.0002 C3.582,16.0002 0,12.4182 0,8.0002 C0,3.5822 3.582,0.0002 8,0.0002 C12.418,0.0002 16,3.5822 16,8.0002" id="Background" fill="#FFCD00"></path>
        <path d="M7.9999,8.0001 C8.9599,8.0001 9.7699,9.0321 9.9599,10.4001 C9.9899,10.5921 9.9999,10.7961 9.9999,11.0001 C9.9999,12.6561 9.0999,14.0001 7.9999,14.0001 C6.8999,14.0001 5.9999,12.6561 5.9999,11.0001 C5.9999,10.7961 6.0099,10.5921 6.0399,10.4001 C6.2299,9.0321 7.0399,8.0001 7.9999,8.0001 Z M4,5.0002 C4.414,5.0002 4.75,5.4482 4.75,6.0002 C4.75,6.5522 4.414,7.0002 4,7.0002 C3.586,7.0002 3.25,6.5522 3.25,6.0002 C3.25,5.4482 3.586,5.0002 4,5.0002 Z M12,5.0002 C12.414,5.0002 12.75,5.4482 12.75,6.0002 C12.75,6.5522 12.414,7.0002 12,7.0002 C11.586,7.0002 11.25,6.5522 11.25,6.0002 C11.25,5.4482 11.586,5.0002 12,5.0002 Z" id="Face" fill="#000000"></path>
    </g>
</svg>
