<svg width="20px" height="20px" viewBox="0 0 20 20" version="1.1" xmlns="http://www.w3.org/2000/svg" xmlns:xlink="http://www.w3.org/1999/xlink">
    <title>Reaction / Small / Suspicious_Small_20X20</title>
    <g id="Reaction-/-Small-/-Suspicious_Small_20X20" stroke="none" stroke-width="1" fill="none" fill-rule="evenodd">
        <path d="M0.0001,10.0001 C0.0001,15.5231 4.4771,20.0001 10.0001,20.0001 C15.5231,20.0001 20.0001,15.5231 20.0001,10.0001 C20.0001,4.4771 15.5231,0.0001 10.0001,0.0001 C4.4771,0.0001 0.0001,4.4771 0.0001,10.0001" id="Background" fill="#FFCD00"></path>
        <path d="M12.2396,10.7622 L11.2946,11.5812 C10.4686,10.6272 8.8386,10.4212 7.7336,11.1302 L7.0576,10.0792 C8.6846,9.0362 11.0076,9.3422 12.2396,10.7622 Z M13.7496,6.2501 C14.2676,6.2501 14.6876,6.8101 14.6876,7.5001 C14.6876,8.1901 14.2676,8.7501 13.7496,8.7501 C13.2316,8.7501 12.8126,8.1901 12.8126,7.5001 C12.8126,6.8101 13.2316,6.2501 13.7496,6.2501 Z M6.2496,5.0001 C6.7676,5.0001 7.1876,5.5601 7.1876,6.2501 C7.1876,6.9401 6.7676,7.5001 6.2496,7.5001 C5.7316,7.5001 5.3126,6.9401 5.3126,6.2501 C5.3126,5.5601 5.7316,5.0001 6.2496,5.0001 Z M16.0175,5.1385 L15.2325,6.1115 C14.4295,5.4635 13.0705,5.4635 12.2675,6.1115 L11.4825,5.1385 C12.7545,4.1135 14.7455,4.1135 16.0175,5.1385 Z M9.0739,3.2158 L8.4269,4.2848 C7.2479,3.5718 5.2529,3.5718 4.0739,4.2848 L3.4269,3.2158 C5.0099,2.2578 7.4899,2.2578 9.0739,3.2158 Z" id="Face" fill="#000000"></path>
        <path d="M11.8746,12.4205 L5.4096,13.1545 L5.8206,12.0295 C5.9606,11.6465 6.0096,11.2345 5.9636,10.8295 L5.8506,9.8305 C5.7996,9.3835 5.3966,9.0635 4.9506,9.1135 C4.5036,9.1645 4.1836,9.5675 4.2336,10.0135 C4.3466,11.0045 3.8896,11.9735 3.0536,12.5175 L1.1226,13.7735 C0.3386,14.2835 -0.0894,15.1915 0.0156,16.1215 L0.2076,17.8105 C0.3616,19.1645 1.5836,20.1375 2.9386,19.9835 L5.7866,19.6605 C6.4826,19.5815 7.0496,19.0665 7.1946,18.3805 L8.0176,14.4955 L12.0586,14.0365 C12.5046,13.9855 12.8256,13.5835 12.7746,13.1365 C12.7236,12.6905 12.3206,12.3695 11.8746,12.4205" id="Hand" fill="#FC9D06"></path>
    </g>
</svg>
