<svg width="16px" height="16px" viewBox="0 0 16 16" version="1.1" xmlns="http://www.w3.org/2000/svg" xmlns:xlink="http://www.w3.org/1999/xlink">
    <title>Reaction / XSmall / Angry_XSmall_16X16</title>
    <g id="Reaction-/-XSmall-/-Angry_XSmall_16X16" stroke="none" stroke-width="1" fill="none" fill-rule="evenodd">
        <path d="M15.9998,8.0002 C15.9998,12.4182 12.4178,16.0002 7.9998,16.0002 C3.5818,16.0002 -0.0002,12.4182 -0.0002,8.0002 C-0.0002,3.5822 3.5818,0.0002 7.9998,0.0002 C12.4178,0.0002 15.9998,3.5822 15.9998,8.0002" id="Background" fill="#F5592D"></path>
        <path d="M8,10 C9.286,10 10.489,10.597 11.385,11.681 L10.614,12.319 C9.96121429,11.5287857 9.11442347,11.0688112 8.20973907,11.0071323 L8,11 C7.017,11 6.089,11.468 5.385,12.319 L4.614,11.681 C5.4549375,10.66475 6.56482031,10.0765273 7.7599021,10.0069692 L8,10 Z M13.3789,6.015 L13.6209,6.985 L11.6269,7.484 C11.6979,7.636 11.7499,7.807 11.7499,8 C11.7499,8.552 11.4139,9 10.9999,9 C10.5859,9 10.2499,8.552 10.2499,8 C10.2499,7.937 10.2689,7.881 10.2769,7.821 L10.2769,7.821 L9.6209,7.985 L9.3789,7.015 L13.3789,6.015 Z M2.6207,6.015 L6.6207,7.015 L6.3787,7.985 L5.7227,7.821 C5.7317,7.881 5.7507,7.937 5.7507,8 C5.7507,8.552 5.4147,9 5.0007,9 C4.5857,9 4.2507,8.552 4.2507,8 C4.2507,7.807 4.3017,7.636 4.3737,7.484 L4.3737,7.484 L2.3787,6.985 L2.6207,6.015 Z" id="Face" fill="#000000"></path>
    </g>
</svg>
