<svg width="24px" height="24px" viewBox="0 0 24 24" version="1.1" xmlns="http://www.w3.org/2000/svg" xmlns:xlink="http://www.w3.org/1999/xlink">
    <title>Reaction / Meduim / Clapping_Meduim_24X24</title>
    <g id="Reaction-/-Meduim-/-Clapping_Meduim_24X24" stroke="none" stroke-width="1" fill="none" fill-rule="evenodd">
        <path d="M23.733,13.9148 C23.267,13.2518 22.352,13.0928 21.69,13.5588 L23.061,12.5938 C23.724,12.1278 23.883,11.2128 23.417,10.5508 C22.951,9.8878 22.036,9.7288 21.374,10.1948 L22.744,9.2308 C23.406,8.7658 23.566,7.8508 23.1,7.1878 C22.634,6.5258 21.719,6.3658 21.056,6.8318 L18.153,8.8728 L19.687,7.7948 C20.349,7.3298 20.508,6.4148 20.043,5.7518 C19.576,5.0888 18.662,4.9298 17.999,5.3958 L11.45,10.0008 L9.665,9.0738 L10.527,8.4668 C11.133,8.0408 11.278,7.2048 10.853,6.5988 C10.426,5.9938 9.59,5.8478 8.984,6.2738 L5.694,8.5878 L6.721,10.0488 L5.101,11.1878 C2.569,12.9688 1.96,16.4658 3.741,18.9978 L5.584,21.6188 C7.364,24.1508 10.861,24.7598 13.394,22.9788 L17.062,20.3988 L23.377,15.9578 C24.04,15.4928 24.199,14.5778 23.733,13.9148" id="Hand3" fill="#FC9D06"></path>
        <path d="M20.7169,11.53 C20.1769,10.99 19.3009,10.99 18.7609,11.53 L15.2079,15.084 L15.1239,14.609 L19.5999,10.133 C20.1399,9.593 20.1399,8.717 19.5999,8.177 C19.0599,7.636 18.1839,7.636 17.6439,8.177 L14.5369,11.283 L14.4539,10.809 L18.4819,6.781 C19.0219,6.241 19.0219,5.365 18.4819,4.825 C17.9419,4.285 17.0659,4.285 16.5259,4.825 L11.5989,9.751 L11.1749,9.617 L15.1299,5.662 C15.6699,5.122 15.6699,4.247 15.1299,3.706 C14.5899,3.166 13.7139,3.166 13.1739,3.706 L8.2049,8.676 L7.7809,8.541 L8.5129,7.81 C9.0069,7.316 9.0069,6.515 8.5129,6.022 C8.0189,5.528 7.2179,5.528 6.7249,6.022 L5.0659,7.68 L1.7279,11.018 C-0.5761,13.322 -0.5761,17.058 1.7279,19.363 L4.1129,21.746 C6.4169,24.051 10.1529,24.051 12.4569,21.746 L15.7949,18.409 L15.7949,18.408 L20.7169,13.486 C21.2569,12.946 21.2569,12.07 20.7169,11.53" id="Hand" fill="#FFCD00"></path>
        <path d="M3,6 L3,7.5 L0,7.5 L0,6 L3,6 Z M1.0611,-0.0002 L4.0611,2.9998 L3.0001,4.0608 L0.0001,1.0608 L1.0611,-0.0002 Z M7.5,-8.13151629e-20 L7.5,3 L6,3 L6,-8.13151629e-20 L7.5,-8.13151629e-20 Z" id="Reaction" fill="#000000"></path>
        <path d="M18.4823,11.251 L18.7613,11.53 L14.6733,15.619 L14.3933,15.339 L18.4823,11.251 Z M17.225,8.0381 L17.504,8.3171 L12.438,13.3831 L12.158,13.1041 L17.225,8.0381 Z M15.1298,5.6627 L15.4088,5.9417 L10.2018,11.1487 L9.9228,10.8687 L15.1298,5.6627 Z M8.5131,7.8101 L8.7921,8.0891 L5.8821,11.0001 L5.6031,10.7201 L8.5131,7.8101 Z" id="Fingers" fill="#FC9D06"></path>
    </g>
</svg>
