<svg width="16px" height="16px" viewBox="0 0 16 16" version="1.1" xmlns="http://www.w3.org/2000/svg" xmlns:xlink="http://www.w3.org/1999/xlink">
    <title>Reaction / XSmall / Clapping_XSmall_16X16</title>
    <g id="Reaction-/-XSmall-/-Clapping_XSmall_16X16" stroke="none" stroke-width="1" fill="none" fill-rule="evenodd">
        <path d="M2,4 L2,5 L0,5 L0,4 L2,4 Z M0.7071,0.0002 L2.7071,2.0002 L2.0001,2.7072 L0.0001,0.7072 L0.7071,0.0002 Z M5,0 L5,2 L4,2 L4,0 L5,0 Z" id="Reaction" fill="#000000"></path>
        <path d="M15.8219,9.2766 C15.5109,8.8346 14.9019,8.7286 14.4599,9.0396 L15.3739,8.3966 C15.8159,8.0856 15.9219,7.4756 15.6119,7.0336 C15.3009,6.5916 14.6909,6.4856 14.2489,6.7966 L15.1619,6.1536 C15.6039,5.8436 15.7109,5.2336 15.3999,4.7916 C15.0889,4.3506 14.4789,4.2436 14.0379,4.5546 L12.1019,5.9156 L13.1239,5.1966 C13.5659,4.8866 13.6729,4.2766 13.3619,3.8346 C13.0509,3.3926 12.4409,3.2866 11.9989,3.5976 L7.6339,6.6676 L6.4439,6.0486 L7.0179,5.6446 C7.4219,5.3606 7.5189,4.8026 7.2349,4.3996 C6.9509,3.9956 6.3939,3.8986 5.9889,4.1826 L3.7959,5.7246 L4.4809,6.6986 L3.4009,7.4586 C1.7129,8.6456 1.3059,10.9766 2.4939,12.6656 L3.7219,14.4126 C4.9099,16.1006 7.2409,16.5066 8.9289,15.3196 L11.3749,13.5996 L15.5849,10.6386 C16.0269,10.3286 16.1329,9.7186 15.8219,9.2766" id="Hand2" fill="#FC9D06"></path>
        <path d="M13.8116,7.6867 C13.4516,7.3267 12.8676,7.3267 12.5076,7.6867 L10.1386,10.0557 L10.0826,9.7387 L13.0666,6.7547 C13.4266,6.3947 13.4266,5.8117 13.0666,5.4517 C12.7066,5.0907 12.1226,5.0907 11.7626,5.4517 L9.6916,7.5217 L9.6356,7.2057 L12.3206,4.5207 C12.6806,4.1607 12.6806,3.5767 12.3206,3.2167 C11.9606,2.8567 11.3766,2.8567 11.0176,3.2167 L7.7326,6.5007 L7.4506,6.4117 L10.0866,3.7747 C10.4466,3.4147 10.4466,2.8307 10.0866,2.4707 C9.7266,2.1107 9.1426,2.1107 8.7826,2.4707 L5.4696,5.7837 L5.1876,5.6937 L5.6756,5.2067 C6.0046,4.8767 6.0046,4.3437 5.6756,4.0147 C5.3456,3.6857 4.8126,3.6857 4.4826,4.0147 L3.3766,5.1207 L1.1516,7.3457 C-0.3844,8.8817 -0.3844,11.3727 1.1516,12.9087 L2.7416,14.4977 C4.2776,16.0337 6.7686,16.0337 8.3046,14.4977 L10.5296,12.2727 L10.5296,12.2717 L13.8116,8.9907 C14.1716,8.6307 14.1716,8.0467 13.8116,7.6867" id="Hand" fill="#FFCD00"></path>
        <path d="M12.3214,7.5007 L12.5074,7.6867 L9.7814,10.4127 L9.5954,10.2267 L12.3214,7.5007 Z M11.4831,5.3586 L11.6691,5.5446 L8.2921,8.9216 L8.1061,8.7356 L11.4831,5.3586 Z M10.0866,3.7742 L10.2726,3.9612 L6.8016,7.4322 L6.6156,7.2462 L10.0866,3.7742 Z M5.6755,5.2058 L5.8615,5.3928 L3.9215,7.3328 L3.7355,7.1468 L5.6755,5.2058 Z" id="Fingers" fill="#FC9D06"></path>
    </g>
</svg>
