<svg width="16px" height="16px" viewBox="0 0 16 16" version="1.1" xmlns="http://www.w3.org/2000/svg" xmlns:xlink="http://www.w3.org/1999/xlink">
    <title>Reaction / XSmall / Sad_XSmall_16X16</title>
    <g id="Reaction-/-XSmall-/-Sad_XSmall_16X16" stroke="none" stroke-width="1" fill="none" fill-rule="evenodd">
        <path d="M15.9998,8.0002 C15.9998,12.4182 12.4178,16.0002 7.9998,16.0002 C3.5818,16.0002 -0.0002,12.4182 -0.0002,8.0002 C-0.0002,3.5822 3.5818,0.0002 7.9998,0.0002 C12.4178,0.0002 15.9998,3.5822 15.9998,8.0002" id="Background" fill="#FFCD00"></path>
        <path d="M8.0006,10 C9.2846,10 10.4876,10.597 11.3846,11.681 L10.6146,12.319 C9.9106,11.468 8.9816,11 8.0006,11 L7.9996,11 C7.0186,11 6.0896,11.468 5.3846,12.319 L4.6146,11.681 C5.5126,10.597 6.7156,10 7.9996,10 L8.0006,10 Z M3.9998,6.0002 C4.4148,6.0002 4.7498,6.4482 4.7498,7.0002 C4.7498,7.5522 4.4148,8.0002 3.9998,8.0002 C3.5858,8.0002 3.2498,7.5522 3.2498,7.0002 C3.2498,6.4482 3.5858,6.0002 3.9998,6.0002 Z M11.9998,6.0002 C12.4148,6.0002 12.7498,6.4482 12.7498,7.0002 C12.7498,7.5522 12.4148,8.0002 11.9998,8.0002 C11.5858,8.0002 11.2498,7.5522 11.2498,7.0002 C11.2498,6.4482 11.5858,6.0002 11.9998,6.0002 Z" id="Face" fill="#000000"></path>
        <path d="M2.9998,9.0002 L0.4418,11.5002 C-0.5022,12.4222 0.1668,14.0002 1.5018,14.0002 C2.3288,14.0002 2.9998,13.3442 2.9998,12.5352 L2.9998,9.0002 Z" id="Tears" fill="#318EFE"></path>
    </g>
</svg>
