<svg width="16px" height="16px" viewBox="0 0 16 16" version="1.1" xmlns="http://www.w3.org/2000/svg" xmlns:xlink="http://www.w3.org/1999/xlink">
    <title>Reaction / XSmall / SmileyTears_XSmall_16X16</title>
    <g id="Reaction-/-XSmall-/-SmileyTears_XSmall_16X16" stroke="none" stroke-width="1" fill="none" fill-rule="evenodd">
        <path d="M15.9998,7.9998 C15.9998,12.4178 12.4178,15.9998 7.9998,15.9998 C3.5818,15.9998 -0.0002,12.4178 -0.0002,7.9998 C-0.0002,3.5818 3.5818,-0.0002 7.9998,-0.0002 C12.4178,-0.0002 15.9998,3.5818 15.9998,7.9998" id="Background" fill="#FFCD00"></path>
        <path d="M11.9998,8.9998 C11.9998,9.7098 12.6321383,9.90046772 12.5898,9.9998 C11.8386322,11.7621552 10.0498,12.9998 7.9998,12.9998 C5.9498,12.9998 4.16097889,11.7621812 3.4098,9.9998 C3.34070293,9.83768764 3.9998,9.7098 3.9998,8.9998 L11.9998,8.9998 Z M4.0006,5 C4.7456,5 5.4296,5.439 5.9246,6.236 L5.0746,6.764 C4.7696,6.271 4.3876,6 4.0006,6 L3.9996,6 C3.6126,6 3.2306,6.271 2.9246,6.764 L2.0746,6.236 C2.5706,5.439 3.2546,5 3.9996,5 L4.0006,5 Z M12.0006,5 C12.7456,5 13.4296,5.439 13.9246,6.236 L13.0746,6.764 C12.7696,6.271 12.3876,6 12.0006,6 L11.9996,6 C11.6126,6 11.2306,6.271 10.9246,6.764 L10.0746,6.236 C10.5706,5.439 11.2546,5 11.9996,5 L12.0006,5 Z" id="Face" fill="#000000"></path>
        <path d="M13.9998,7.9998 L15.4998,9.4998 C16.0538,10.0538 15.6618,10.9998 14.8788,10.9998 C14.3938,10.9998 13.9998,10.6068 13.9998,10.1218 L13.9998,7.9998 Z M1.9998,7.9998 L1.9998,10.1218 C1.9998,10.6068 1.6068,10.9998 1.1218,10.9998 C0.376085714,10.9998 -0.0149800454,10.1417501 0.427168751,9.58146505 L0.4998,9.4998 L1.9998,7.9998 Z" id="Tears" fill="#318EFE"></path>
        <path d="M12.9998,7.9998 C12.9998,8.7098 12.8498,9.3898 12.5898,9.9998 L3.4098,9.9998 C3.1498,9.3898 2.9998,8.7098 2.9998,7.9998 L12.9998,7.9998 Z" id="Fill-9" fill="#FFFFFF"></path>
    </g>
</svg>
