<svg width="24px" height="24px" viewBox="0 0 24 24" version="1.1" xmlns="http://www.w3.org/2000/svg" xmlns:xlink="http://www.w3.org/1999/xlink">
    <title>Reaction / Meduim / SmileyTears_Meduim_24X24</title>
    <g id="Reaction-/-Meduim-/-SmileyTears_Meduim_24X24" stroke="none" stroke-width="1" fill="none" fill-rule="evenodd">
        <path d="M23.9998,11.9998 C23.9998,18.6268 18.6268,23.9998 11.9998,23.9998 C5.3728,23.9998 -0.0002,18.6268 -0.0002,11.9998 C-0.0002,5.3728 5.3728,-0.0002 11.9998,-0.0002 C18.6268,-0.0002 23.9998,5.3728 23.9998,11.9998" id="Background" fill="#FFCD00"></path>
        <path d="M17.9998,13.4998 C17.9998,14.5648 19.2748,14.0848 18.8848,14.9998 C17.7148,17.6398 15.0748,19.4998 11.9998,19.4998 C8.9248,19.4998 6.2848,17.6398 5.1148,14.9998 C4.7248,14.0848 5.9998,14.5648 5.9998,13.4998 L17.9998,13.4998 Z M6,7.4998 C7.119,7.4998 8.144,8.1588 8.887,9.3538 L7.613,10.1458 C7.18930769,9.46364615 6.66847929,9.06437988 6.13388666,9.00699071 L6,8.9998 C5.419,8.9998 4.846,9.4068 4.387,10.1458 L3.113,9.3538 C3.81229412,8.22815294 4.76138754,7.57907336 5.80354346,7.50660602 L6,7.4998 Z M18,7.4998 C19.119,7.4998 20.144,8.1588 20.887,9.3538 L19.613,10.1458 C19.1893077,9.46364615 18.6684793,9.06437988 18.1338867,9.00699071 L18,8.9998 C17.419,8.9998 16.846,9.4068 16.387,10.1458 L15.113,9.3538 C15.8122941,8.22815294 16.7613875,7.57907336 17.8035435,7.50660602 L18,7.4998 Z" id="Face" fill="#000000"></path>
        <path d="M20.9998,11.9998 L23.2498,14.2498 C24.0808,15.0808 23.4928,16.4998 22.3178,16.4998 C21.5898,16.4998 20.9998,15.9098 20.9998,15.1818 L20.9998,11.9998 Z M2.9998,11.9998 L2.9998,15.1818 C2.9998,15.9098 2.4098,16.4998 1.6818,16.4998 C0.549728571,16.4998 -0.037452551,15.1803472 0.666259548,14.3409943 L0.7498,14.2498 L2.9998,11.9998 Z" id="Tears" fill="#318EFE"></path>
        <path d="M19.4998,11.9998 C19.4998,13.0648 19.2748,14.0848 18.8848,14.9998 L5.1148,14.9998 C4.7248,14.0848 4.4998,13.0648 4.4998,11.9998 L19.4998,11.9998 Z" id="Fill-9" fill="#FFFFFF"></path>
    </g>
</svg>
