<svg width="20px" height="20px" viewBox="0 0 20 20" version="1.1" xmlns="http://www.w3.org/2000/svg" xmlns:xlink="http://www.w3.org/1999/xlink">
    <title>Reaction / Small / SmileyTears_Small_20X20</title>
    <g id="Reaction-/-Small-/-SmileyTears_Small_20X20" stroke="none" stroke-width="1" fill="none" fill-rule="evenodd">
        <path d="M20,10 C20,15.523 15.523,20 10,20 C4.477,20 0,15.523 0,10 C0,4.477 4.477,0 10,0 C15.523,0 20,4.477 20,10" id="Background" fill="#FFCD00"></path>
        <path d="M15,11.25 C15,12.138 16.062,11.737 15.737,12.5 C14.763,14.7 12.562,16.25 10,16.25 C7.438,16.25 5.237,14.7 4.263,12.5 C3.937,11.737 5,12.138 5,11.25 L15,11.25 Z M5.0008,6.2501 C5.9318,6.2501 6.7868,6.7991 7.4058,7.7951 L6.3438,8.4551 C5.99363333,7.89043333 5.56364028,7.55852361 5.12160324,7.50712662 L4.9998,7.5001 C4.5158,7.5001 4.0388,7.8391 3.6558,8.4551 L2.5938,7.7941 C3.17246667,6.8645 3.95497333,6.32515778 4.81448622,6.25737704 L5.0008,6.2501 Z M15.0008,6.2501 C15.9318,6.2501 16.7868,6.7991 17.4058,7.7951 L16.3438,8.4551 C15.9618,7.8391 15.4848,7.5001 15.0008,7.5001 L14.9998,7.5001 C14.5158,7.5001 14.0388,7.8391 13.6558,8.4551 L12.5938,7.7941 C13.2138,6.7981 14.0678,6.2501 14.9998,6.2501 L15.0008,6.2501 Z" id="Face" fill="#000000"></path>
        <path d="M17.5,10 L19.375,11.875 C20.067,12.567 19.577,13.75 18.598,13.75 C17.992,13.75 17.5,13.258 17.5,12.652 L17.5,10 Z M2.5,10 L2.5,12.652 C2.5,13.258 2.008,13.75 1.402,13.75 C0.46216,13.75 -0.0270176,12.6597472 0.547589248,11.9602897 L0.625,11.875 L2.5,10 Z" id="Tears" fill="#318EFE"></path>
        <path d="M16.25,10 C16.25,10.888 16.063,11.737 15.737,12.5 L4.263,12.5 C3.937,11.737 3.75,10.888 3.75,10 L16.25,10 Z" id="Fill-8" fill="#FFFFFF"></path>
    </g>
</svg>
