<svg width="24px" height="24px" viewBox="0 0 24 24" version="1.1" xmlns="http://www.w3.org/2000/svg" xmlns:xlink="http://www.w3.org/1999/xlink">
    <title>Reaction / Meduim / Smiley_Meduim_24X24</title>
    <g id="Reaction-/-Meduim-/-Smiley_Meduim_24X24" stroke="none" stroke-width="1" fill="none" fill-rule="evenodd">
        <path d="M23.9998,12 C23.9998,18.627 18.6268,24 11.9998,24 C5.3728,24 -0.0002,18.627 -0.0002,12 C-0.0002,5.373 5.3728,-5.68434189e-14 11.9998,-5.68434189e-14 C18.6268,-5.68434189e-14 23.9998,5.373 23.9998,12" id="Background" fill="#FFCD00"></path>
        <path d="M17.9998,12 C17.9998,14.265 16.7548,16.23 14.8948,17.25 C14.5148,17.4633333 14.1081333,17.3388889 13.6813844,17.1347737 L13.0270222,16.8011111 C12.6931333,16.6366667 12.3498,16.5 11.9998,16.5 C11.6498,16.5 11.3064667,16.6366667 10.9725778,16.8011111 L10.479175,17.055 C9.99355,17.3025 9.5323,17.49 9.1048,17.25 C7.2448,16.23 5.9998,14.265 5.9998,12 L17.9998,12 Z M5.9998,6 C6.6218,6 7.1248,6.671 7.1248,7.5 C7.1248,8.328 6.6218,9 5.9998,9 C5.3788,9 4.8748,8.328 4.8748,7.5 C4.8748,6.671 5.3788,6 5.9998,6 Z M17.9998,6 C18.6218,6 19.1248,6.671 19.1248,7.5 C19.1248,8.328 18.6218,9 17.9998,9 C17.3788,9 16.8748,8.328 16.8748,7.5 C16.8748,6.671 17.3788,6 17.9998,6 Z" id="Face" fill="#000000"></path>
        <path d="M14.8948,17.25 C14.0398,17.73 13.0498,18 11.9998,18 C10.9498,18 9.9598,17.73 9.1048,17.25 C9.4498,15.96 10.6198,15.015 11.9998,15.015 C13.3798,15.015 14.5498,15.96 14.8948,17.25" id="Tongue" fill="#F5592D"></path>
    </g>
</svg>
