<svg width="20px" height="20px" viewBox="0 0 20 20" version="1.1" xmlns="http://www.w3.org/2000/svg" xmlns:xlink="http://www.w3.org/1999/xlink">
    <title>Reaction / Small / Surprised_Small_20X20</title>
    <g id="Reaction-/-Small-/-Surprised_Small_20X20" stroke="none" stroke-width="1" fill="none" fill-rule="evenodd">
        <path d="M20,10.0002 C20,15.5222 15.523,20.0002 10,20.0002 C4.477,20.0002 0,15.5222 0,10.0002 C0,4.4772 4.477,0.0002 10,0.0002 C15.523,0.0002 20,4.4772 20,10.0002" id="Background" fill="#FFCD00"></path>
        <path d="M10.0002,10.0002 C11.2002,10.0002 12.2122,11.2902 12.4502,13.0002 C12.4872,13.2402 12.5002,13.4952 12.5002,13.7502 C12.5002,15.8202 11.3752,17.5002 10.0002,17.5002 C8.6252,17.5002 7.5002,15.8202 7.5002,13.7502 C7.5002,13.4952 7.5132,13.2402 7.5502,13.0002 C7.7872,11.2902 8.8002,10.0002 10.0002,10.0002 Z M5.0005,6.2502 C5.5175,6.2502 5.9375,6.8102 5.9375,7.5002 C5.9375,8.1902 5.5175,8.7502 5.0005,8.7502 C4.4825,8.7502 4.0625,8.1902 4.0625,7.5002 C4.0625,6.8102 4.4825,6.2502 5.0005,6.2502 Z M15.0005,6.2502 C15.5175,6.2502 15.9375,6.8102 15.9375,7.5002 C15.9375,8.1902 15.5175,8.7502 15.0005,8.7502 C14.4825,8.7502 14.0625,8.1902 14.0625,7.5002 C14.0625,6.8102 14.4825,6.2502 15.0005,6.2502 Z" id="Face" fill="#000000"></path>
    </g>
</svg>
