<svg width="24px" height="24px" viewBox="0 0 24 24" version="1.1" xmlns="http://www.w3.org/2000/svg" xmlns:xlink="http://www.w3.org/1999/xlink">
    <title>Reaction / Meduim / Surprised_Meduim_24X24</title>
    <g id="Reaction-/-Meduim-/-Surprised_Meduim_24X24" stroke="none" stroke-width="1" fill="none" fill-rule="evenodd">
        <path d="M24,12 C24,18.627 18.627,24 12,24 C5.373,24 0,18.627 0,12 C0,5.373 5.373,-5.68434189e-14 12,-5.68434189e-14 C18.627,-5.68434189e-14 24,5.373 24,12" id="Background" fill="#FFCD00"></path>
        <path d="M11.9999,11.9996 C13.4399,11.9996 14.6549,13.5476 14.9399,15.5996 C14.9849,15.8876 14.9999,16.1936 14.9999,16.4996 C14.9999,18.9836 13.6499,20.9996 11.9999,20.9996 C10.3499,20.9996 8.9999,18.9836 8.9999,16.4996 C8.9999,16.1936 9.0149,15.8876 9.0599,15.5996 C9.3449,13.5476 10.5599,11.9996 11.9999,11.9996 Z M6,7.5 C6.621,7.5 7.125,8.171 7.125,9 C7.125,9.828 6.621,10.5 6,10.5 C5.379,10.5 4.875,9.828 4.875,9 C4.875,8.171 5.379,7.5 6,7.5 Z M18,7.5 C18.621,7.5 19.125,8.171 19.125,9 C19.125,9.828 18.621,10.5 18,10.5 C17.379,10.5 16.875,9.828 16.875,9 C16.875,8.171 17.379,7.5 18,7.5 Z" id="Face" fill="#000000"></path>
    </g>
</svg>
