<svg width="24px" height="24px" viewBox="0 0 24 24" version="1.1" xmlns="http://www.w3.org/2000/svg" xmlns:xlink="http://www.w3.org/1999/xlink">
    <title>Reaction / Meduim / Suspicious_Meduim_24X24</title>
    <g id="Reaction-/-Meduim-/-Suspicious_Meduim_24X24" stroke="none" stroke-width="1" fill="none" fill-rule="evenodd">
        <path d="M0.0001,12.0001 C0.0001,18.6271 5.3731,24.0001 12.0001,24.0001 C18.6271,24.0001 24.0001,18.6271 24.0001,12.0001 C24.0001,5.3731 18.6271,0.0001 12.0001,0.0001 C5.3731,0.0001 0.0001,5.3731 0.0001,12.0001" id="Background" fill="#FFCD00"></path>
        <path d="M14.6878,12.9141 L13.5538,13.8971 C12.5628,12.7531 10.6068,12.5051 9.2798,13.3561 L8.4688,12.0951 C10.4208,10.8431 13.2098,11.2101 14.6878,12.9141 Z M16.5001,7.5001 C17.1211,7.5001 17.6251,8.1711 17.6251,9.0001 C17.6251,9.8281 17.1211,10.5001 16.5001,10.5001 C15.8781,10.5001 15.3751,9.8281 15.3751,9.0001 C15.3751,8.1711 15.8781,7.5001 16.5001,7.5001 Z M7.5001,6.0001 C8.1211,6.0001 8.6251,6.6711 8.6251,7.5001 C8.6251,8.3281 8.1211,9.0001 7.5001,9.0001 C6.8781,9.0001 6.3751,8.3281 6.3751,7.5001 C6.3751,6.6711 6.8781,6.0001 7.5001,6.0001 Z M19.2214,6.1671 L18.2794,7.3341 C17.3154,6.5561 15.6854,6.5561 14.7214,7.3341 L13.7794,6.1671 C15.3054,4.9361 17.6954,4.9361 19.2214,6.1671 Z M10.8879,3.8587 L10.1119,5.1417 C8.6969,4.2867 6.3029,4.2867 4.8879,5.1417 L4.1119,3.8587 C6.0119,2.7087 8.9879,2.7087 10.8879,3.8587 Z" id="Combined-Shape" fill="#000000"></path>
        <path d="M14.2496,14.9044 L6.4906,15.7854 L6.9846,14.4364 C7.1526,13.9754 7.2116,13.4824 7.1566,12.9944 L7.0206,11.7964 C6.9586,11.2604 6.4756,10.8754 5.9396,10.9364 C5.4046,10.9974 5.0196,11.4804 5.0806,12.0164 C5.2156,13.2054 4.6676,14.3684 3.6646,15.0204 L1.3466,16.5284 C0.4066,17.1394 -0.1074,18.2304 0.0196,19.3454 L0.2496,21.3724 C0.4336,22.9974 1.9006,24.1654 3.5266,23.9804 L6.9436,23.5924 C7.7786,23.4974 8.4596,22.8794 8.6336,22.0574 L9.6206,17.3944 L14.4696,16.8434 C15.0056,16.7834 15.3906,16.2994 15.3296,15.7634 C15.2686,15.2284 14.7856,14.8434 14.2496,14.9044" id="Hand" fill="#FC9D06"></path>
    </g>
</svg>
