<svg width="16px" height="16px" viewBox="0 0 16 16" version="1.1" xmlns="http://www.w3.org/2000/svg" xmlns:xlink="http://www.w3.org/1999/xlink">
    <title>Reaction / XSmall / Suspicious_XSmall_16X16</title>
    <g id="Reaction-/-XSmall-/-Suspicious_XSmall_16X16" stroke="none" stroke-width="1" fill="none" fill-rule="evenodd">
        <path d="M0.0001,8.0001 C0.0001,12.4181 3.5821,16.0001 8.0001,16.0001 C12.4181,16.0001 16.0001,12.4181 16.0001,8.0001 C16.0001,3.5821 12.4181,0.0001 8.0001,0.0001 C3.5821,0.0001 0.0001,3.5821 0.0001,8.0001" id="Background" fill="#FFCD00"></path>
        <path d="M9.7918,8.6098 L9.0358,9.2648 C8.3748,8.5018 7.0708,8.3368 6.1868,8.9048 L5.6458,8.0628 C6.9478,7.2288 8.8068,7.4738 9.7918,8.6098 Z M11.0001,5.0001 C11.4141,5.0001 11.7501,5.4481 11.7501,6.0001 C11.7501,6.5521 11.4141,7.0001 11.0001,7.0001 C10.5851,7.0001 10.2501,6.5521 10.2501,6.0001 C10.2501,5.4481 10.5851,5.0001 11.0001,5.0001 Z M5.0001,4.0001 C5.4141,4.0001 5.7501,4.4481 5.7501,5.0001 C5.7501,5.5521 5.4141,6.0001 5.0001,6.0001 C4.5851,6.0001 4.2501,5.5521 4.2501,5.0001 C4.2501,4.4481 4.5851,4.0001 5.0001,4.0001 Z M12.8142,4.1113 L12.1862,4.8893 C11.5432,4.3703 10.4572,4.3703 9.8142,4.8893 L9.1862,4.1113 C10.2042,3.2903 11.7962,3.2903 12.8142,4.1113 Z M7.2593,2.5729 L6.7413,3.4279 C5.7983,2.8579 4.2023,2.8579 3.2593,3.4279 L2.7413,2.5729 C4.0083,1.8059 5.9923,1.8059 7.2593,2.5729 Z" id="Face" fill="#000000"></path>
        <path d="M9.4996,9.9362 L4.3276,10.5232 L4.6566,9.6242 C4.7686,9.3172 4.8076,8.9882 4.7706,8.6632 L4.6806,7.8642 C4.6396,7.5072 4.3166,7.2502 3.9596,7.2912 C3.6036,7.3322 3.3466,7.6542 3.3866,8.0112 C3.4776,8.8032 3.1116,9.5792 2.4426,10.0142 L0.8976,11.0192 C0.2706,11.4262 -0.0714,12.1542 0.0126,12.8962 L0.1666,14.2482 C0.2896,15.3322 1.2676,16.1102 2.3516,15.9872 L4.6296,15.7282 C5.1856,15.6652 5.6396,15.2532 5.7556,14.7052 L6.4136,11.5962 L9.6466,11.2292 C10.0036,11.1882 10.2606,10.8662 10.2196,10.5092 C10.1786,10.1522 9.8566,9.8952 9.4996,9.9362" id="Hand" fill="#FC9D06"></path>
    </g>
</svg>
