<svg width="16px" height="16px" viewBox="0 0 16 16" version="1.1" xmlns="http://www.w3.org/2000/svg" xmlns:xlink="http://www.w3.org/1999/xlink">
    <title>Reaction / XSmall / ThumbUp_XSmall_16X16</title>
    <g id="Reaction-/-XSmall-/-ThumbUp_XSmall_16X16" stroke="none" stroke-width="1" fill="none" fill-rule="evenodd">
        <path d="M4.8116,16 C4.4266,16 4.0446,15.938 3.6796,15.816 C2.2802087,15.3501739 1.31724083,14.0773762 1.23614985,12.6189662 L1.2306,12.419 L1.2306,8.721 C1.2306,7.70553333 1.6618,6.74146222 2.40956178,6.06538044 L2.5746,5.925 L4.4156,4.452 C5.6006,3.504 6.4856,2.234 6.9656,0.794 C7.1236,0.32 7.5676,0 8.0676,0 C8.7096,0 9.2306,0.52 9.2306,1.162 C9.2306,2.2501 9.00218,3.32443 8.562836,4.316464 L8.4086,4.644 L8.2306,5 L13.4806,5 C14.4466,5 15.2306,5.783 15.2306,6.75 C15.2306,7.6677 14.52304,8.421145 13.6240598,8.49419525 L13.4806,8.5 L13.9806,8.5 C14.6706,8.5 15.2306,9.06 15.2306,9.75 C15.2306,10.396875 14.7384125,10.9294922 14.1083466,10.9935425 L13.9806,11 L14.1083466,11.0064575 C14.7384125,11.0705078 15.2306,11.603125 15.2306,12.25 C15.2306,12.896875 14.7384125,13.4294922 14.1083466,13.4935425 L13.9806,13.5 L13.2866,13.5 L13.2868805,13.5378476 C13.788963,13.6644595 14.1705537,14.0950983 14.2241425,14.6222534 L14.2306,14.75 C14.2306,15.35375 13.80185,15.8579687 13.2324164,15.9745898 L13.2306,16 L4.8116,16 Z" id="Path" fill="#FFCD00"></path>
        <path d="M13.2306,13.625 L10.4806,13.625 C9.8606,13.625 9.3556,14.13 9.3556,14.75 C9.3556,15.37 9.8606,15.875 10.4806,15.875 L13.2306,15.875 L13.2306,16.125 L10.4806,16.125 C9.7226,16.125 9.1056,15.508 9.1056,14.75 C9.1056,14.1947795 9.43663787,13.7152095 9.91164723,13.4983564 C9.43663787,13.2847905 9.1056,12.8052205 9.1056,12.25 C9.1056,11.6947795 9.43663787,11.2152095 9.91164723,10.9983564 C9.43663787,10.7847905 9.1056,10.3052205 9.1056,9.75 C9.1056,9.19477954 9.43663787,8.71520955 9.91164723,8.4983564 C9.43663787,8.28479045 9.1056,7.80522046 9.1056,7.25 C9.1056,6.492 9.7226,5.875 10.4806,5.875 L13.2306,5.875 L13.2306,6.125 L10.4806,6.125 C9.8606,6.125 9.3556,6.63 9.3556,7.25 C9.3556,7.82866667 9.79551111,8.30715556 10.3582489,8.36838222 L10.4806,8.375 L13.2306,8.375 L13.2306,8.625 L10.4806,8.625 C9.8606,8.625 9.3556,9.13 9.3556,9.75 C9.3556,10.3286667 9.79551111,10.8071556 10.3582489,10.8683822 L10.4806,10.875 L13.2306,10.875 L13.2306,11.125 L10.4806,11.125 C9.8606,11.125 9.3556,11.63 9.3556,12.25 C9.3556,12.8286667 9.79551111,13.3071556 10.3582489,13.3683822 L10.4806,13.375 L13.2306,13.375 L13.2306,13.625 Z" id="Fingers" fill="#FC9D06"></path>
    </g>
</svg>
