<svg width="24px" height="25px" viewBox="0 0 24 25" version="1.1" xmlns="http://www.w3.org/2000/svg" xmlns:xlink="http://www.w3.org/1999/xlink">
    <title>Reaction / Meduim / ThumbUp_Meduim_24X24</title>
    <g id="Reaction-/-Meduim-/-ThumbUp_Meduim_24X24" stroke="none" stroke-width="1" fill="none" fill-rule="evenodd">
        <path d="M7.2176,24 C6.6396,24 6.0666,23.907 5.5186,23.724 C3.3246,22.993 1.8456,20.94 1.8456,18.628 L1.8456,18.628 L1.8456,13.082 C1.8456,11.45 2.5876,9.906 3.8616,8.887 L3.8616,8.887 L6.6226,6.678 C8.4006,5.256 9.7286,3.351 10.4486,1.192 C10.6856,0.48 11.3516,0 12.1026,0 C13.0656,0 13.8456,0.78 13.8456,1.743 C13.8456,3.556 13.4236,5.344 12.6126,6.965 L12.6126,6.965 L12.3456,7.5 L20.2206,7.5 L20.3866361,7.50516329 C21.7592464,7.59079142 22.8456,8.73076923 22.8456,10.125 C22.8456,11.575 21.6706,12.75 20.2206,12.75 L20.2206,12.75 L20.9706,12.75 C22.0066,12.75 22.8456,13.589 22.8456,14.625 C22.8456,15.66 22.0066,16.5 20.9706,16.5 L20.9706,16.5 L21.1171905,16.5056382 C22.0846023,16.5803515 22.8456,17.3883333 22.8456,18.375 C22.8456,19.41 22.0066,20.25 20.9706,20.25 L20.9706,20.25 L19.9316,20.25 L19.9310312,20.3068834 C20.6984704,20.5004384 21.2772796,21.1667795 21.3399618,21.9784095 L21.3456,22.125 C21.3456,23.0311531 20.7024913,23.7878351 19.8471165,23.9621902 L19.8456,24 Z" id="Hand" fill="#FFCD00"></path>
        <path d="M19.8461,20.4375 L15.7211,20.4375 C14.7911,20.4375 14.0341,21.1945 14.0341,22.1245 C14.0341,23.0555 14.7911,23.8125 15.7211,23.8125 L19.8461,23.8125 L19.8461,24.1875 L15.7211,24.1875 C14.5831,24.1875 13.6591,23.2625 13.6591,22.1245 C13.6591,21.2941197 14.151939,20.5768151 14.8610451,20.2503266 C14.151939,19.9231122 13.6591,19.2056106 13.6591,18.3745 C13.6591,17.5441197 14.151939,16.8268151 14.8610451,16.5003266 C14.151939,16.1731122 13.6591,15.4556106 13.6591,14.6245 C13.6591,13.7941197 14.151939,13.0768151 14.8610451,12.7503266 C14.151939,12.4231122 13.6591,11.7056106 13.6591,10.8745 C13.6591,9.7375 14.5831,8.8125 15.7211,8.8125 L19.8461,8.8125 L19.8461,9.1875 L15.7211,9.1875 C14.7911,9.1875 14.0341,9.9445 14.0341,10.8745 C14.0341,11.7565 14.7135127,12.4823338 15.5757807,12.5562941 L15.7211,12.5625 L15.7211,12.5625 L19.8461,12.5625 L19.8461,12.9375 L15.7211,12.9375 C14.7911,12.9375 14.0341,13.6945 14.0341,14.6245 C14.0341,15.5065 14.7135127,16.2323338 15.5757807,16.3062941 L15.7211,16.3125 L15.7211,16.3125 L19.8461,16.3125 L19.8461,16.6875 L15.7211,16.6875 C14.7911,16.6875 14.0341,17.4445 14.0341,18.3745 C14.0341,19.2565 14.7135127,19.9823338 15.5757807,20.0562941 L15.7211,20.0625 L15.7211,20.0625 L19.8461,20.0625 L19.8461,20.4375 Z" id="Fingers" fill="#FC9D06"></path>
    </g>
</svg>
