<svg xmlns="http://www.w3.org/2000/svg" width="24" height="24" fill="none" viewBox="0 0 22 24">
  <path fill="#FFCD00" fill-rule="evenodd" d="M5.449 23.814a5.547 5.547 0 01-1.724-.274C1.5 22.815 0 20.778 0 18.484V12.98c0-1.62.753-3.152 2.045-4.163l2.8-2.192a11.717 11.717 0 003.88-5.443A1.764 1.764 0 0110.404 0c.977 0 1.768.774 1.768 1.73 0 1.798-.428 3.573-1.25 5.181l-.271.53h7.987l.169.006c1.392.085 2.494 1.216 2.494 2.6 0 1.438-1.192 2.604-2.663 2.604h.761c1.051 0 1.902.833 1.902 1.86 0 1.028-.851 1.861-1.902 1.861l.149.006c.981.074 1.753.875 1.753 1.855 0 1.026-.851 1.86-1.902 1.86h-1.054v.056a1.873 1.873 0 011.429 1.659l.006.145c0 .9-.653 1.65-1.52 1.823l-.002.038H5.45z" clip-rule="evenodd"/>
  <path fill="#FC9D06" fill-rule="evenodd" d="M18.258 20.28h-4.184c-.944 0-1.711.75-1.711 1.673 0 .924.768 1.675 1.71 1.675h4.185V24h-4.184c-1.155 0-2.092-.918-2.092-2.047 0-.824.5-1.536 1.22-1.86a2.049 2.049 0 01-1.22-1.86c0-.825.5-1.537 1.22-1.86a2.049 2.049 0 01-1.22-1.862c0-.824.5-1.535 1.22-1.86a2.049 2.049 0 01-1.22-1.86c0-1.129.938-2.047 2.092-2.047h4.184v.372h-4.184c-.944 0-1.711.751-1.711 1.674 0 .875.689 1.596 1.563 1.669l.148.006h4.184v.372h-4.184c-.944 0-1.711.751-1.711 1.674 0 .875.689 1.596 1.563 1.669l.148.006h4.184v.372h-4.184c-.944 0-1.711.751-1.711 1.674 0 .875.689 1.595 1.563 1.669l.148.006h4.184v.372z" clip-rule="evenodd"/>
</svg>
