<?xml version="1.0" encoding="UTF-8"?>
<svg width="20px" height="20px" viewBox="0 0 20 20" version="1.1" xmlns="http://www.w3.org/2000/svg" xmlns:xlink="http://www.w3.org/1999/xlink">
    <title>ThumbUp_Small_20X20</title>
    <g id="ThumbUp_Small_20X20" stroke="none" stroke-width="1" fill="none" fill-rule="evenodd">
        <path d="M10.0803,0 C10.8823,0 11.5333,0.65 11.5333,1.453 C11.5333,2.962 11.1813,4.452 10.5063,5.802 L10.5063,5.802 L10.2833,6.247 L16.8423,6.247 C18.0499,6.2471 19.0289,7.2261 19.0289,8.4331 C19.0289,9.6411 18.0499,10.6201 16.8429,10.6201 L16.8683,10.619 L17.4674,10.6196 C18.2815111,10.6196 18.9511222,11.2439827 19.0230108,12.0395256 L19.0294,12.1816 C19.0294,13.0446 18.3294,13.7436 17.4674,13.7436 L17.4674,13.7436 L17.6094744,13.7495892 C18.4050173,13.8214778 19.0294,14.4910889 19.0294,15.3052 C19.0294,16.1682 18.3294,16.8672 17.4674,16.8672 L17.4674,16.8672 L16.6003,16.867 L16.5999114,16.9137356 C17.2331164,17.073043 17.7128354,17.6196868 17.7730197,18.2866256 L17.7794,18.4287 C17.7794,19.1844465 17.2433468,19.8144237 16.5312059,19.9593378 L16.5303,19.991 L6.0123,19.991 C5.5313,19.991 5.0533,19.913 4.5963,19.761 C2.7693,19.152 1.5373,17.442 1.5373,15.517 L1.5373,15.517 L1.5373,10.896 C1.5373,9.537 2.1553,8.252 3.2163,7.403 L3.2163,7.403 L5.5163,5.563 C6.9963,4.378 8.1033,2.791 8.7023,0.993 C8.9003,0.4 9.4553,0 10.0803,0 Z" id="Hand" fill="#FFCD00"></path>
        <path d="M16.5304,16.7109 L16.5304,17.0234 L13.0844,17.0233 L12.9593955,17.029351 C12.2483481,17.0976336 11.6894,17.6994882 11.6894,18.4289 C11.6894,19.2039 12.3204,19.8349 13.0944,19.8349 L16.5304,19.8349 L16.5304,20.1469 L13.0944,20.1469 C12.1474,20.1469 11.3764,19.3759 11.3764,18.4289 C11.3764,17.7359619 11.788333,17.1381264 12.3798316,16.8665892 C11.788333,16.5957803 11.3764,15.9976072 11.3764,15.3054 C11.3764,14.6131928 11.788333,14.0150197 12.3798316,13.743248 C11.788333,13.4722803 11.3764,12.8741072 11.3764,12.1819 C11.3764,11.4896928 11.788333,10.8915197 12.3798316,10.619748 C11.788333,10.3486803 11.3764,9.75050716 11.3764,9.0583 C11.3764,8.1113 12.1474,7.3403 13.0944,7.3403 L16.5304,7.3403 L16.5304,7.6523 L13.0944,7.6523 C12.3204,7.6523 11.6894,8.2833 11.6894,9.0583 C11.6894,9.82961272 12.31441,10.4582924 13.0833622,10.4642572 L16.5304,10.4639 L16.5304,10.7763 L13.0844,10.7763 L12.9593955,10.782351 C12.2483481,10.8506336 11.6894,11.4524882 11.6894,12.1819 C11.6894,12.9113118 12.2483481,13.5131664 12.9593955,13.581449 L13.0944,13.5874 L13.0944,13.5874 L16.5304,13.5874 L16.5304,13.8994 L13.0944,13.8994 C12.3204,13.8994 11.6894,14.5304 11.6894,15.3054 C11.6894,16.0767127 12.31441,16.7053924 13.0833622,16.7113572 L16.5304,16.7109 Z" id="Fingers" fill="#FC9D06"></path>
    </g>
</svg>
