<svg xmlns="http://www.w3.org/2000/svg" width="24" height="24" fill="none" viewBox="0 0 24 24">
  <path fill="#FFCD00" fill-rule="evenodd" d="M7.218 23.04c-.578 0-1.151-.09-1.7-.265-2.193-.702-3.672-2.673-3.672-4.892v-5.324c0-1.567.742-3.05 2.016-4.027l2.76-2.121a11.344 11.344 0 003.827-5.267C10.686.461 11.352 0 12.103 0c.963 0 1.743.749 1.743 1.673 0 1.74-.422 3.457-1.233 5.013l-.267.514h7.875l.166.005c1.372.082 2.459 1.177 2.459 2.515 0 1.392-1.175 2.52-2.625 2.52h.75c1.036 0 1.875.805 1.875 1.8 0 .994-.84 1.8-1.875 1.8l.146.005c.968.072 1.729.848 1.729 1.795 0 .994-.84 1.8-1.875 1.8h-1.04v.055c.768.185 1.346.825 1.41 1.604l.005.141c0 .87-.643 1.596-1.499 1.764l-.001.036H7.218z" clip-rule="evenodd"/>
  <path fill="#FC9D06" fill-rule="evenodd" d="M19.846 19.62h-4.125c-.93 0-1.687.727-1.687 1.62 0 .893.757 1.62 1.687 1.62h4.125v.36h-4.125c-1.138 0-2.062-.888-2.062-1.98 0-.798.493-1.486 1.202-1.8-.709-.314-1.202-1.003-1.202-1.8 0-.798.493-1.486 1.202-1.8-.709-.314-1.202-1.003-1.202-1.8 0-.798.493-1.486 1.202-1.8-.709-.314-1.202-1.003-1.202-1.8 0-1.092.924-1.98 2.062-1.98h4.125v.36h-4.125c-.93 0-1.687.727-1.687 1.62 0 .846.68 1.543 1.542 1.614l.145.006h4.125v.36h-4.125c-.93 0-1.687.727-1.687 1.62 0 .846.68 1.543 1.542 1.614l.145.006h4.125v.36h-4.125c-.93 0-1.687.727-1.687 1.62 0 .846.68 1.543 1.542 1.614l.145.006h4.125v.36z" clip-rule="evenodd"/>
</svg>
